<?xml version="1.0" encoding="UTF-8" standalone="no"?>
<svg
   version="1.0"
   width="351px"
   height="798px"
   viewBox="0 0 351 798"
   preserveAspectRatio="xMidYMid meet"
   id="svg49"
   sodipodi:docname="mock_app_no_bg.svg"
   inkscape:version="1.4 (86a8ad7, 2024-10-11)"
   xmlns:inkscape="http://www.inkscape.org/namespaces/inkscape"
   xmlns:sodipodi="http://sodipodi.sourceforge.net/DTD/sodipodi-0.dtd"
   xmlns="http://www.w3.org/2000/svg"
   xmlns:svg="http://www.w3.org/2000/svg">
  <defs
     id="defs49" />
  <sodipodi:namedview
     id="namedview49"
     pagecolor="#ffffff"
     bordercolor="#000000"
     borderopacity="0.25"
     inkscape:showpageshadow="2"
     inkscape:pageopacity="0.0"
     inkscape:pagecheckerboard="0"
     inkscape:deskcolor="#d1d1d1"
     inkscape:zoom="0.53741888"
     inkscape:cx="-443.78791"
     inkscape:cy="867.10762"
     inkscape:window-width="2400"
     inkscape:window-height="1494"
     inkscape:window-x="-11"
     inkscape:window-y="-11"
     inkscape:window-maximized="1"
     inkscape:current-layer="svg49" />
  <g
     fill="#000000"
     id="g49">
    <path
       d="M 204 792.45 c -7.55 -0.15 -16.40 -0.35 -19.60 -0.40 l -5.90 -0.05 0 -8.50 0 -8.50 -6.85 0 c -11.70 0 -39.60 -0.50 -45.60 -0.80 l -5.70 -0.30 0.35 -100.60 c 0.35 -88.15 0.45 -105.10 0.85 -107.10 0.05 -0.25 0.05 -0.65 0 -0.95 -0.05 -0.25 -0.10 -12.15 -0.05 -26.35 l 0.05 -25.90 -23.05 0 -23.05 0 0.35 -32.60 c 0.15 -17.95 0.45 -32.75 0.55 -32.90 0.15 -0.15 10.55 -0.30 23.20 -0.40 l 22.95 -0.20 0.05 -1.05 c 0 -0.60 0.10 -9.80 0.25 -20.45 l 0.20 -19.35 -2.85 -0.15 c -2.70 -0.15 -2.90 -0.25 -3.05 -1.45 -0.10 -0.95 0.35 -1.85 1.65 -3.20 1.70 -1.85 1.75 -1.90 0.75 -2.60 -1.70 -1.20 -3.55 -5.85 -1.95 -4.90 0.75 0.50 5 -0.20 4.70 -0.75 -0.15 -0.25 -1.40 -0.40 -2.75 -0.35 -2.10 0.15 -2.50 0.05 -2.50 -0.70 0 -0.50 0.25 -1.05 0.50 -1.20 0.25 -0.15 0.50 -0.75 0.50 -1.25 0 -0.55 0.60 -1.35 1.30 -1.85 1.25 -0.80 1.30 -0.85 0.40 -1.60 -4.05 -3.35 -3.30 -9.85 1.30 -11.35 l 1.75 -0.60 0 -17.15 0 -17.20 -23.10 -0.15 -23.15 -0.10 0 -31.70 0 -31.65 12.10 -0.30 c 6.65 -0.20 16.85 -0.35 22.65 -0.35 l 10.65 0 -0.30 -122.40 -0.25 -122.45 6.90 -0.30 c 7.60 -0.40 21.55 -0.35 20.10 0 -0.50 0.15 -0.80 0.50 -0.70 0.80 0.45 1.35 10.95 0.70 12.60 -0.75 0.30 -0.30 0 -0.35 -0.75 -0.20 -0.70 0.15 -3.05 0.10 -5.25 -0.15 -3.55 -0.35 -3 -0.45 5.50 -0.55 5.25 -0.10 9.95 -0.25 10.50 -0.30 0.55 -0.05 2.30 -0.10 3.85 -0.15 l 2.85 -0.05 0.15 -7.60 0.15 -7.65 7.50 -0.30 c 5.90 -0.25 44.25 -1.05 55.75 -1.20 l 2.25 0 0.15 7.40 0.15 7.35 10.10 0 10.10 0 0.05 18 c 0 9.90 -0.15 17.70 -0.40 17.35 -0.20 -0.30 -0.40 -2.55 -0.40 -4.95 0 -2.45 -0.20 -4.40 -0.45 -4.40 -0.65 0 -1.20 3.55 -0.65 4.10 0.30 0.30 0.30 1.10 0 2.20 -0.25 0.95 -0.40 2.55 -0.30 3.60 0.15 1.60 0.30 1.85 1.30 1.75 l 1.10 -0.15 0 15.90 c 0 14.50 -0.05 15.75 -0.75 14.40 -0.60 -1.15 -0.65 -1.55 -0.15 -1.85 0.45 -0.30 0.45 -0.55 -0.05 -1.15 -1.20 -1.40 -1.55 -0.40 -1.15 3.10 0.05 0.40 0.35 0.50 0.75 0.30 0.30 -0.20 0.20 0.05 -0.25 0.60 -0.65 0.75 -0.75 1.50 -0.50 3.70 0.20 1.55 0.60 2.75 0.95 2.75 0.30 0 0.70 0.10 0.85 0.25 0.30 0.35 0.80 14.50 0.45 14.50 -0.15 0 -0.65 -0.50 -1.20 -1.10 -0.90 -1.10 -0.90 -1.10 -0.95 -0.15 0 0.60 0.50 1.25 1.10 1.50 l 1.10 0.50 0.15 48.75 c 0.05 26.80 0.25 57.20 0.35 67.50 0.15 10.30 0.30 23.40 0.30 29.05 l 0 10.30 23.25 -0.25 23.25 -0.25 0 17.45 c 0 9.60 0.15 24.15 0.35 32.35 l 0.30 14.85 -8.65 0 c -4.75 0 -8.55 -0.10 -8.45 -0.25 0.15 -0.10 1.60 -0.25 3.25 -0.30 3.40 -0.05 4.70 -0.35 4.70 -0.95 0 -0.75 -13.15 -0.35 -13.40 0.40 -0.10 0.35 0.25 0.60 1 0.60 0.60 0 1.40 0.20 1.75 0.40 0.30 0.20 -5.65 0.30 -13.20 0.20 -7.70 -0.10 -14 0.05 -14.25 0.30 -0.35 0.35 -0.50 27.80 -0.20 39.10 l 0.05 2.25 2.90 0.15 c 3.75 0.20 3.80 0.70 0.25 5.75 -0.55 0.75 -0.50 1 0.25 1.40 0.95 0.55 2.35 3 2.35 4.15 0 0.55 -0.70 0.80 -2.60 0.90 -1.55 0.10 -2.55 0.35 -2.40 0.65 0.15 0.30 0.50 0.50 0.85 0.50 0.30 0 0.75 0.20 0.95 0.40 0.20 0.20 -0.30 0.35 -1.15 0.35 -1.25 0 -1.60 -0.25 -1.75 -1.25 -0.25 -1.20 -0.15 -1.25 2.40 -1.25 2 0 2.70 -0.20 2.70 -0.70 0 -1.25 -2.45 -3.70 -4 -4.05 -1.65 -0.35 -1.55 -1.25 0.05 -1.25 1.20 0 3.95 -2.60 3.95 -3.70 0 -0.65 -0.60 -0.80 -2.95 -0.80 -2.60 0 -2.95 -0.10 -3.25 -1.10 -0.15 -0.65 -0.30 -10.20 -0.30 -21.30 l 0 -20.15 -3.45 0.15 c -3.65 0.10 -4.15 -0.05 -4.30 -1.50 -0.15 -1.80 -0.85 -3.05 -2.05 -3.85 -2 -1.30 -2.75 -0.65 -2.65 2.15 0.05 1.35 -0.05 2.70 -0.25 3 -0.20 0.35 -1.50 0.60 -3 0.60 -2.30 0 -2.70 -0.15 -3.30 -1.20 -0.35 -0.70 -0.50 -1.90 -0.35 -2.65 0.15 -0.80 0.10 -1.75 -0.15 -2.15 -0.70 -1.10 -3 0.85 -3.85 3.25 -0.35 1.10 -0.85 2.15 -1.05 2.30 -0.60 0.60 -18.60 0.80 -18.65 0.20 -0.05 -0.25 -0.10 -0.95 -0.15 -1.50 0 -0.65 -0.40 -1 -1.05 -1 -0.65 0 -1.05 -0.40 -1.15 -1.15 -0.15 -1.05 -0.35 -1.15 -3.25 -1 -2.75 0.15 -3.10 0.25 -3.25 1.25 -0.10 0.80 -0.45 1.10 -1.25 1 -0.90 -0.10 -1.10 0.15 -1.10 1.40 l 0 1.50 -4.95 0.15 c -4.10 0.10 -5.05 0 -5.40 -0.65 -0.25 -0.40 -0.75 -0.75 -1.15 -0.75 -0.35 0 -1.35 -0.60 -2.25 -1.30 l -1.55 -1.30 -1.20 1.30 c -0.65 0.70 -1.65 1.30 -2.20 1.30 -0.55 0 -1.20 0.30 -1.40 0.70 -0.35 0.60 -3.25 0.75 -16.25 0.90 -10.75 0.15 -15.90 0 -15.90 -0.35 0 -0.25 -0.05 -12.05 -0.15 -26.20 l -0.10 -25.75 1.50 -0.40 c 1.95 -0.55 4.10 -2.35 4.35 -3.65 0.15 -0.90 -0.20 -1.05 -3.60 -1.35 -2.05 -0.20 -9.70 -0.35 -17 -0.35 -7.30 0 -14.30 -0.05 -15.55 -0.05 -1.90 0 -2.35 -0.15 -2.25 -0.85 0.05 -0.80 -0.70 -0.90 -8.70 -1 -4.80 0 -14 0.05 -20.40 0.20 l -11.60 0.25 0 1.20 c 0 0.65 -0.20 1.20 -0.50 1.20 -0.25 0 -0.50 -0.25 -0.50 -0.60 0 -0.30 -0.45 -0.15 -1 0.35 -1 0.90 -1 1.55 -1 26.35 l 0 25.45 1.55 0.30 c 0.95 0.15 1.40 0.50 1.25 0.95 -0.60 1.60 1 1.75 15.30 1.65 7.80 -0.05 16.70 -0.20 19.80 -0.35 5.40 -0.25 5.70 -0.30 6.15 -1.40 0.35 -0.95 0.80 -1.20 2.20 -1.20 l 1.75 0 0 2.50 c 0 3.15 -0.05 3.25 -1.35 3.25 -0.60 0.05 -1.20 0.15 -1.35 0.30 -0.15 0.10 -0.30 8.15 -0.40 17.80 l -0.10 17.55 -1.85 0.30 c -1.90 0.30 -4.70 2.85 -4.30 4 0.10 0.30 1.50 0.60 3.10 0.70 3.15 0.10 3.50 0.25 3 1.05 -0.15 0.30 -1.65 0.55 -3.30 0.55 -2.15 0 -2.95 0.20 -2.95 0.70 0 1.20 2 3.20 3.80 3.80 l 1.80 0.60 -1.95 0.90 c -1.80 0.80 -3.65 2.80 -3.65 4 0 0.30 1.25 0.50 3 0.50 1.65 0 3 0.20 3 0.50 0 0.30 -0.20 0.50 -0.50 0.50 -0.25 0 -0.35 0.35 -0.20 0.75 0.25 0.60 -0.20 0.75 -2.50 0.75 -1.90 0 -2.80 0.20 -2.80 0.65 0.05 1.10 1.70 2.75 3.75 3.65 1.85 0.85 1.90 0.90 0.75 1.05 -1.65 0.25 -3.80 2.05 -4.25 3.55 -0.30 1.05 -0.20 1.10 2.70 1.10 l 3.05 0 0.05 2.65 c 0 1.40 0 11 0 21.25 l -0.05 18.60 6.75 0 c 7.55 0 6.80 0.40 6.95 -3.60 0.15 -2.30 0.90 -2.60 3.25 -1.40 1.15 0.55 2.20 1.35 2.35 1.75 0.20 0.50 0.85 0.25 2.55 -1.05 3.10 -2.35 3.85 -2.15 4.15 1.30 l 0.25 2.75 19.15 0.15 c 11 0.05 19.10 0.30 19.10 0.55 0 0.25 0.70 0.60 1.50 0.80 0.85 0.20 1.90 0.90 2.35 1.60 0.70 1.05 0.90 1.10 1.25 0.45 0.25 -0.45 1.55 -1.35 2.90 -2.05 2.30 -1.15 2.90 -1.25 11.90 -1.30 5.20 -0.05 9.70 -0.20 9.95 -0.40 0.25 -0.15 0.75 -1 1.10 -1.90 0.85 -2.15 2.10 -3.15 4.25 -3.50 l 1.80 -0.30 0 2.80 c 0 2.40 0.15 2.75 1.10 3 1.65 0.45 1.90 0.05 1.90 -2.95 0 -2.50 0.10 -2.70 1.15 -2.70 1.85 0 4.40 2.05 5.35 4.40 0.50 1.20 1.10 1.30 9.60 1.10 6.15 -0.10 6.40 0 6.40 3.20 0 1.45 0.15 2.75 0.30 2.95 0.20 0.15 0.95 0 1.70 -0.40 1.30 -0.65 2.65 -3 2.70 -4.75 0.05 -0.60 0.90 -0.80 3.80 -0.90 l 3.75 -0.15 -0.15 -21.45 -0.15 -21.50 3.05 0 c 2.55 0 3 -0.15 3 -0.90 0 -1.20 -1.85 -2.90 -3.65 -3.30 -1.35 -0.30 -1.45 -1.30 -0.10 -1.30 1.10 0 3.75 -2.50 3.75 -3.55 0 -0.50 -0.25 -0.95 -0.60 -0.95 -0.30 0 -0.45 -0.10 -0.30 -0.25 0.45 -0.45 1.90 0.35 1.90 1.05 0 0.35 -0.70 1.50 -1.60 2.50 l -1.60 1.80 1.10 0.85 c 1 0.75 2.60 3.85 2.60 5.05 0 0.30 -1.30 0.50 -3.05 0.50 l -3.05 0 0.30 10.65 c 0.15 5.80 0.25 15.15 0.30 20.75 l 0 10.10 19.45 0 19.50 0 2.75 3.15 c 2.85 3.20 5.70 7.15 4.80 6.60 -0.30 -0.20 -0.50 0.95 -0.50 3.20 0 4.25 0.95 4.85 1.05 0.70 l 0.10 -2.90 0.35 3.25 c 0.20 1.80 0.50 14.35 0.70 27.90 l 0.35 24.60 -23.55 0 c -18.45 0 -23.50 0.15 -23.50 0.65 -0.10 2.35 0.05 18.75 0.30 36 l 0.35 20.35 -1.05 0 c -0.90 0 -1.10 0.30 -1.10 1.45 0 1.95 0.45 3.05 1.30 3.05 0.55 0 0.70 1.40 0.70 7.15 0.05 3.90 0.15 13.40 0.25 21.10 0.10 7.70 0.35 28.30 0.55 45.75 0.20 17.45 0.35 32.65 0.40 33.75 0.10 1.10 0.30 22.65 0.55 47.90 l 0.40 45.90 -10.35 -0.10 c -5.70 -0.05 -10.45 0.05 -10.60 0.20 -0.15 0.15 -0.25 4 -0.20 8.55 l 0.05 8.30 -15.15 -0.10 c -8.35 -0.05 -21.35 -0.25 -28.90 -0.45 z  m 42.50 -1.45 c 0.35 -0.65 0.50 -4 0.40 -9.25 l -0.15 -8.25 1.90 0 c 1 0 1.85 -0.20 1.85 -0.50 0 -0.60 -2.05 -1.15 -3.55 -0.90 l -1.20 0.15 -0.15 9.40 -0.10 9.40 -9.95 -0.35 c -9.90 -0.35 -12.55 -0.15 -11.05 0.80 0.40 0.30 5.40 0.50 11.10 0.50 9.90 0 10.40 -0.05 10.90 -1 z  m -23.50 0.10 c 0 -0.30 -4.90 -0.60 -11.35 -0.80 -25.60 -0.70 -29.45 -0.80 -30.15 -0.80 -0.65 0 -0.75 -1.25 -0.75 -8.45 0 -5.95 0.20 -8.65 0.65 -9.15 1 -1.25 0.20 -2.40 -1.75 -2.40 -2.10 0 -3.70 0.80 -3.35 1.70 0.15 0.35 -0.05 0.85 -0.40 1.15 -0.40 0.30 -8.60 0.30 -23.15 0.05 -21.60 -0.40 -30.65 -0.20 -27.70 0.60 0.70 0.20 12.65 0.55 26.60 0.75 23 0.30 25.35 0.30 25.65 -0.45 0.15 -0.45 0.80 -0.80 1.40 -0.80 1.05 0 1.05 0.15 1.05 9.10 l 0 9.15 9.75 0.25 c 19.80 0.50 33.50 0.55 33.50 0.10 z  m 0.25 -1.90 c 0.55 -0.15 1.40 -0.90 1.85 -1.70 0.80 -1.40 0.80 -1.50 0 -2 -0.75 -0.40 -0.70 -0.45 0.20 -0.50 0.95 0 3.10 -2.30 2.60 -2.75 -0.10 -0.10 -3.15 -0.25 -6.80 -0.30 -7.70 -0.20 -7.60 -0.25 -7.60 4.15 l 0 2.85 2.90 0.20 c 1.55 0.10 3.55 0.20 4.35 0.25 0.85 0.05 1.95 -0.05 2.50 -0.20 z  m 21.25 -7.45 l 0 -7.75 -2.15 0 c -1.20 0 -2.75 0.30 -3.50 0.65 -1.20 0.55 -1.35 0.85 -1.35 3.25 0 2.25 0.15 2.60 1 2.60 0.80 0 1 0.35 1 1.50 0 1.20 -0.20 1.50 -1.05 1.50 -0.90 0 -1 0.25 -0.85 2.65 0.15 2.55 0.20 2.60 1.90 2.90 0.95 0.20 2.50 0.35 3.40 0.40 l 1.60 0.05 0 -7.75 z  m -32 2.80 c 0 -4 0.10 -4.45 1 -4.70 0.85 -0.20 1 -0.70 1 -2.80 l 0 -2.55 -1.70 0 c -0.95 0 -1.90 -0.20 -2.05 -0.50 -0.15 -0.25 -1.20 -0.50 -2.30 -0.50 -1.40 0 -1.95 0.20 -1.95 0.75 0 0.45 -0.45 0.95 -1.05 1.15 -0.90 0.35 -1.05 0.85 -1.15 3.35 -0.05 2.65 0.10 3.05 1.10 3.55 1.35 0.65 4.10 3.20 4.10 3.75 0 1.30 1.10 2.95 2 2.95 0.95 0 1 -0.30 1 -4.45 z  m -11.25 -14.15 l 0 -18.15 2 -0.05 c 3.40 -0.10 3.70 -0.15 3.85 -1.30 0.10 -0.90 0.60 -1.20 2.25 -1.55 1.35 -0.25 2.50 -0.90 3.15 -1.70 1.60 -2.05 1.30 -2.65 -1.30 -2.65 -2.90 0 -4.20 -0.70 -4.20 -2.25 0 -1.20 -0.15 -1.25 -3 -1.25 l -3 0 -0.10 -17.60 c -0.15 -23.55 -0.30 -21.35 1.30 -22.75 l 1.35 -1.15 -1.50 -1.85 c -1.05 -1.25 -1.55 -2.45 -1.55 -3.50 l 0 -1.65 3.05 0 c 1.85 0 2.90 -0.20 2.70 -0.50 -0.15 -0.25 -1.40 -0.50 -2.80 -0.50 l -2.45 0 0 -8.70 c 0 -7.95 0.10 -8.90 1.05 -10.50 0.65 -1.10 1.65 -1.95 2.75 -2.30 2.65 -0.90 2.35 -2.55 -1.05 -6 l -2.75 -2.75 -0.30 -29.20 -0.30 -29.20 1.65 0.25 c 2.20 0.35 2.95 0.05 2.95 -1.15 0 -0.80 -0.35 -0.95 -2.75 -0.95 -3.25 0 -3.75 -0.60 -2.50 -3.10 1.25 -2.45 2.80 -3.90 4.10 -3.90 0.90 0 1.15 -0.25 1.15 -1.25 0 -1.05 -0.25 -1.25 -1.50 -1.30 -0.80 -0.05 -1.80 -0.10 -2.10 -0.15 -0.95 -0.05 -1.45 -33.60 -0.55 -35.15 0.35 -0.60 1.55 -1.65 2.65 -2.25 1.40 -0.80 2 -1.50 2 -2.25 0 -1 -0.25 -1.15 -2 -1.15 l -2 0 0 -2.50 0 -2.50 2 0 c 1.90 0 2 -0.10 2 -1.50 0 -1.30 -0.30 -1.60 -2.05 -2.35 -1.65 -0.65 -2.25 -1.25 -3 -3.05 -0.70 -1.55 -0.80 -2.45 -0.45 -2.80 0.30 -0.30 0.50 -5.55 0.50 -14.65 l 0 -14.20 -6.60 0.15 -6.65 0.15 -0.15 25.25 c -0.05 13.90 0.05 25.60 0.20 26 0.95 2.15 -1.55 6.25 -4 6.60 -0.85 0.10 -1.10 0.55 -1.20 2.30 -0.15 2 -0.05 2.15 1.50 2.80 2.50 1.05 3.90 2.80 3.85 4.80 -0.05 0.95 -0.15 17 -0.20 35.70 -0.15 22.20 -0.35 34.45 -0.70 35.45 -0.90 2.50 -0.70 4.20 0.50 4.50 2.25 0.60 -0.05 5.70 -2.95 6.55 -1.75 0.50 -2 1.30 -1.60 5.55 l 0.25 3 2.05 0.15 2.05 0.15 0.30 9.05 c 0.20 5 0.35 12.75 0.35 17.25 l 0 8.15 -1.50 0 c -0.95 0 -2.10 0.55 -3.25 1.55 -2.40 2.10 -2.30 2.95 0.40 2.95 1.15 0 2.60 0.15 3.25 0.30 l 1.10 0.30 0 25.70 0 25.70 -1.45 0 c -1.90 0 -4.55 2.20 -4.55 3.80 0 1.15 0.15 1.20 3 1.20 l 3 0 0 5.45 0 5.50 -2.35 0.15 c -1.75 0.10 -2.45 0.35 -2.55 1 -0.10 0.65 0.35 0.90 2.10 1.15 l 2.30 0.35 0 5.45 0 5.40 -2.10 0.15 c -1.15 0.10 -2.15 0.45 -2.30 0.80 -0.15 0.45 1.95 0.60 9.25 0.60 l 9.45 0 -0.05 -18.10 z  m 31.30 15.45 c -0.65 -0.65 -1.15 0.45 -0.75 1.75 l 0.35 1.15 0.45 -1.20 c 0.25 -0.75 0.25 -1.40 -0.05 -1.70 z  m -24.05 1.20 c 0 -1.25 -2.75 -3.55 -4.25 -3.55 -0.90 0 -1.20 0.35 -1.40 1.65 -0.35 2.50 0 2.85 2.95 2.85 2.30 0 2.70 -0.15 2.70 -0.95 z  m 28 -1.05 c 0 -1.10 -0.20 -2 -0.50 -2 -0.25 0 -0.50 0.90 -0.50 2 0 1.10 0.25 2 0.50 2 0.30 0 0.50 -0.90 0.50 -2 z  m -7.50 -1 c 0 -0.55 -0.20 -1 -0.50 -1 -0.25 0 -0.50 0.45 -0.50 1 0 0.55 0.25 1 0.50 1 0.30 0 0.50 -0.45 0.50 -1 z  m -42.50 -3.75 c 0 -1.30 -0.35 -1.45 -1.70 -0.95 -1.35 0.50 -1 2.20 0.45 2.20 1 0 1.25 -0.25 1.25 -1.25 z  m 46.15 -4.70 c -0.15 -0.55 -0.45 -0.90 -0.70 -0.75 -0.55 0.30 -0.60 2.90 -0.10 3.40 0.55 0.50 1.15 -1.45 0.80 -2.65 z  m 3.85 0.95 c 0 -1.10 -0.20 -2 -0.50 -2 -0.25 0 -0.50 0.90 -0.50 2 0 1.10 0.25 2 0.50 2 0.30 0 0.50 -0.90 0.50 -2 z  m 27 -3.25 c -0.50 -0.60 -1.80 -0.75 -6.20 -0.75 -3.05 0 -6.05 0.15 -6.65 0.30 -2.70 0.75 -0.65 1.10 6.20 1.15 6.50 0.10 7.25 0 6.65 -0.70 z  m 3 -2 c 0 -0.80 -1.75 -1.05 -2.20 -0.30 -0.40 0.60 0.20 1.05 1.30 1.05 0.50 0 0.90 -0.35 0.90 -0.75 z  m -81.60 -1.15 c 0.15 -0.85 -0.10 -1.10 -0.85 -1.10 -0.80 0 -1.05 0.30 -1.05 1.30 0 1.65 1.65 1.50 1.90 -0.20 z  m 20.10 0.95 c 0 -0.25 0.15 -0.80 0.30 -1.25 0.20 -0.55 0.05 -0.80 -0.50 -0.80 -0.50 0 -0.80 0.45 -0.80 1.25 0 0.70 0.25 1.25 0.50 1.25 0.30 0 0.50 -0.20 0.50 -0.45 z  m -65.75 -15.05 c 0 -13.60 0 -13.75 -1.05 -13.90 -1.35 -0.20 -3.45 -2.45 -4.05 -4.35 l -0.50 -1.50 -4.20 0 -4.20 0 -0.25 14.25 c -0.15 7.85 -0.20 14.75 -0.10 15.40 0.10 0.70 0.50 1.10 1.15 1.10 0.70 0 0.95 0.35 0.95 1.25 0 1.15 0.20 1.20 3.15 1.40 1.70 0.10 4.45 0.15 6.10 0.15 l 3 -0.05 0 -13.75 z  m 35.65 12.90 c -0.15 -1.15 -0.05 -1.15 5.50 -1.30 l 5.60 -0.15 0 -2.45 0 -2.50 -3 0 c -3 0 -3 0 -3 -1.45 0 -1.85 2.10 -4.45 4.35 -5.40 l 1.65 -0.65 -0.10 -9.15 -0.15 -9.10 -8.05 -0.15 -8 -0.10 -0.65 -2.50 c -0.65 -2.55 -2 -4 -3.65 -4 -0.75 0 -0.90 0.45 -0.90 3.25 0 3.15 -0.05 3.25 -1.25 3.25 -1.20 0 -1.25 -0.10 -1.25 -3.45 0 -3.35 -0.05 -3.45 -1.10 -3.20 -1.95 0.50 -3.35 2.15 -3.70 4.45 l -0.30 2.20 -7.35 0.05 c -9.35 0.10 -14.15 0.55 -14.40 1.30 -0.40 1.10 2.90 3.65 4.70 3.65 l 1.65 0 0 13.90 c 0 7.65 0.15 14.10 0.35 14.25 0.15 0.20 7.70 0.35 16.75 0.35 l 16.45 0 -0.15 -1.10 z  m 87.75 0.40 c 0.20 -0.45 0.90 -0.80 1.60 -0.80 l 1.25 0 -0.10 -13.35 -0.15 -13.40 -12.50 -0.15 -12.55 -0.15 0 1.75 c 0 2.05 -1.40 4.25 -3.35 5.20 -1.20 0.55 -1.30 0.95 -1.65 5.10 l -0.35 4.50 -1.30 -0.35 c -2.25 -0.50 -3 -1.10 -4.05 -3.15 l -1 -2 -12.50 0 -12.50 0 0 7.75 0 7.75 1.95 0 c 1.25 0 2.05 0.25 2.25 0.75 0.20 0.65 3.20 0.75 21.05 0.85 11.40 0.10 23.65 0.25 27.20 0.30 5.50 0.15 6.45 0.05 6.70 -0.60 z  m -137.15 -0.25 c 0 -0.60 -1.40 -1.10 -1.70 -0.60 -0.15 0.25 -0.15 0.55 0.05 0.75 0.45 0.45 1.65 0.35 1.65 -0.15 z  m -2.80 -1.85 c 0.70 -0.30 0.80 -3.25 0.80 -28.50 0 -27.85 0 -28.20 -1 -28.20 -1 0 -1 0.35 -1 28.50 0 15.70 0.10 28.50 0.20 28.50 0.10 0 0.55 -0.15 1 -0.30 z  m 111.35 -11.30 c 0 -0.35 0.05 -2.35 0.10 -4.40 0.10 -3.70 0.10 -3.75 1.45 -3.90 1.50 -0.20 3.40 -2.20 3.40 -3.65 0 -0.70 -0.45 -0.95 -2.35 -1.05 l -2.40 -0.15 -0.30 -2.45 c -0.20 -2 -0.60 -2.75 -1.95 -3.85 -0.90 -0.80 -1.85 -1.30 -2.10 -1.15 -0.20 0.15 -0.40 1.50 -0.40 3 0 2.05 -0.20 2.70 -0.75 2.70 -0.60 0 -0.75 -0.65 -0.75 -2.75 0 -2.40 -0.15 -2.75 -0.95 -2.75 -1.20 0 -3 2.25 -3.40 4.10 l -0.30 1.45 -6.95 -0.10 c -3.80 -0.05 -7.05 0.05 -7.20 0.20 -0.75 0.75 0.65 1.35 3.05 1.35 1.50 0 2.85 0.25 3 0.50 0.20 0.30 -0.20 1.60 -0.85 2.90 -0.80 1.65 -1.60 2.50 -2.65 2.85 -2.35 0.80 -2.95 1.25 -2.25 1.95 0.35 0.35 4 0.65 10.35 0.80 l 9.85 0.25 0.35 1.45 c 0.20 0.75 0.80 1.85 1.25 2.35 0.95 1.05 2.70 1.25 2.75 0.35 z  m 31.15 -29.25 c -0.15 -7.40 -0.35 -13.70 -0.45 -14 -0.15 -0.50 -4.15 -0.65 -17.70 -0.65 l -17.50 0 -0.25 2.15 c -0.10 1.15 -0.15 2.90 -0.10 3.85 0.05 0.95 0.15 5.05 0.20 9.10 l 0.10 7.30 1.50 0.35 c 1.50 0.35 4 2.80 4 4 0 1.05 1.10 1.10 16.35 1.20 l 14.05 0.05 -0.20 -13.35 z  m -42.35 11.35 c 0.35 -0.90 1.45 -2 2.85 -2.85 l 2.30 -1.40 0 -10.85 0 -10.90 -5.85 -0.10 c -3.25 -0.05 -8.80 -0.10 -12.40 -0.10 l -6.50 -0.05 -0.15 12.95 c -0.05 8.85 0.05 13.15 0.45 13.60 0.60 0.75 3.10 1 12.20 1.10 l 6.55 0.10 0.55 -1.50 z  m -37.10 -3.95 c 0.35 -1.10 -0.05 -21.80 -0.40 -22.40 -0.35 -0.55 -5.90 -0.85 -15.35 -0.90 l -5.75 0 -0.15 8.90 c -0.15 8.35 -0.15 8.85 0.75 8.85 1.65 0 4.55 2.40 5.15 4.20 l 0.55 1.75 3.85 0.15 c 9.75 0.35 11.05 0.30 11.35 -0.55 z  m -29 -1.65 c 0.75 -1.65 1.55 -2.45 3.40 -3.35 l 2.35 -1.15 -0.10 -8.60 -0.15 -8.55 -18.60 -0.15 -18.65 -0.10 0 11.75 0 11.75 8.15 0.10 c 4.45 0.10 11.35 0.20 15.35 0.30 l 7.25 0.15 1 -2.15 z  m 107.55 -23.25 c -0.55 -0.55 -0.95 0.30 -0.55 1.20 0.40 0.85 0.40 0.85 0.60 0 0.15 -0.50 0.10 -1.05 -0.05 -1.20 z  m -79.60 0.45 c 0.10 -0.20 0.05 -0.65 -0.15 -1 -0.25 -0.45 -0.60 -0.35 -1.30 0.40 -0.90 0.95 -0.90 1 0.15 1 0.55 0 1.15 -0.20 1.30 -0.40 z  m 77.90 -0.95 c 0.10 -1 0.45 -1.40 1.15 -1.40 0.95 0 1 -0.40 1.15 -14.20 0.10 -10.90 -0.05 -14.30 -0.50 -14.60 -0.35 -0.20 -14.30 -0.40 -31.05 -0.45 l -30.40 0 0.15 5.60 0.15 5.65 2.40 0.15 2.40 0.15 -0.15 1.85 -0.15 1.85 -3.10 0.15 c -3.55 0.15 -3.75 0.55 -1.90 2.85 0.80 0.95 2 1.70 3.35 2 l 2.10 0.55 -2.45 0.95 c -2.45 0.90 -4.20 2.40 -4.25 3.65 0 0.40 0.85 0.60 2.65 0.60 1.45 0 2.90 0.25 3.25 0.60 0.35 0.35 0.60 1.55 0.60 2.75 l 0 2.10 7.65 0.20 c 4.15 0.05 16.40 0.20 27.20 0.25 l 19.60 0.10 0.15 -1.35 z  m -137.10 -0.15 c 0 -0.65 -0.35 -1 -1 -1 -0.65 0 -1 0.35 -1 1 0 0.65 0.35 1 1 1 0.65 0 1 -0.35 1 -1 z  m 17.65 0.20 l 1.85 -0.35 0 -9.90 0 -9.95 -1.85 -0.10 c -1.05 0 -2.20 -0.05 -2.50 -0.05 -0.40 0.05 -0.65 -0.60 -0.65 -1.65 0 -1.30 0.45 -2.15 1.75 -3.45 0.95 -0.95 2.15 -1.75 2.75 -1.75 0.90 0 1 -0.30 1 -2.75 l 0 -2.75 -10.25 0 -10.25 0 0 14.75 c 0 14.40 0 14.75 1 14.75 0.80 0 1 0.35 1 1.50 l 0 1.45 5.40 0.20 c 2.95 0.05 6.15 0.20 7.10 0.25 0.95 0.05 2.60 -0.05 3.65 -0.20 z  m 37.85 -1.20 c 0 -0.80 -0.20 -1.50 -0.45 -1.50 -1.90 0 -0.10 -4.85 2.20 -6 3.10 -1.60 3.05 -1.45 2.75 -5.60 l -0.25 -3.90 -7 -0.25 c -3.85 -0.10 -12.45 -0.35 -19.10 -0.55 l -12.15 -0.30 0 9.80 0 9.80 17 0 17 0 0 -1.50 z  m -57.40 -7.35 c 0.10 -3.25 0.25 -15.95 0.30 -28.25 0.15 -22.25 0.15 -22.40 -0.90 -22.40 -0.55 0 -1 0.05 -1.05 0.15 0 0.05 -0.15 12.75 -0.30 28.25 l -0.30 28.10 1.05 0 c 1 0 1.05 -0.30 1.20 -5.85 z  m 61.90 -15 c 0 -1.90 0.15 -3.90 0.30 -4.50 0.30 -1.10 0.20 -1.15 -2.50 -1.15 l -2.80 0 0.10 -11.60 c 0.15 -11.20 0.20 -11.65 1.15 -11.80 2.70 -0.40 3.35 -0.75 4.25 -2.20 1.20 -1.95 0.95 -2.40 -1.40 -2.40 -3.05 0 -4.10 -0.50 -4.10 -1.80 l 0 -1.20 -7.75 0 -7.75 0 0 -1.70 c 0 -2 -2.05 -4.80 -3.50 -4.80 -0.80 0 -0.95 0.45 -1.10 3.15 l -0.15 3.10 -5.50 0.05 c -14.20 0.20 -13.25 0.10 -13.25 1.30 0 1.75 2.40 3.90 4.35 3.90 l 1.65 0 0 14.40 0 14.35 -1.65 0.10 c -1.10 0.10 -2.10 0.65 -3.20 1.90 -3 3.20 -2.95 3.25 9 3.30 5.80 0.05 11.30 0.25 12.10 0.45 0.85 0.20 6.05 0.40 11.65 0.45 l 10.10 0.05 0 -3.35 z  m 0.25 -13.40 c 0 -5.30 -0.05 -5.50 -1.10 -5.65 -1.15 -0.15 -1.15 -0.10 -1.15 5.65 0 5.75 0 5.80 1.15 5.65 1.05 -0.15 1.10 -0.35 1.10 -5.65 z  m 79.25 1.60 c 0 -2.05 -0.20 -2.80 -0.80 -3.05 -0.45 -0.15 -11.90 -0.30 -25.50 -0.30 l -24.70 0 -0.05 -6.35 c 0 -3.55 -0.10 -7.65 -0.15 -9.15 -0.05 -1.50 0 -3.05 0.10 -3.45 0.20 -0.60 4.10 -0.65 24.05 -0.50 l 23.80 0.20 -0.15 -1.75 c -0.05 -0.95 -0.40 -1.85 -0.70 -2.05 -0.30 -0.20 -10.90 -0.40 -23.60 -0.40 -12.65 -0.05 -23.05 -0.15 -23.10 -0.20 -0.05 -0.05 -0.20 -10.50 -0.30 -23.20 l -0.20 -23.15 25.15 0 25.20 0 -0.15 -4.85 -0.15 -4.90 -1.45 -0.15 -1.40 -0.20 0.25 -3.95 0.30 -3.95 -18.85 0 c -17.25 0 -35.50 -0.30 -38.60 -0.60 -1.10 -0.15 -1.25 0.05 -1.40 1.75 l -0.15 1.85 2.25 0 2.30 0 0 9.75 0 9.75 -2.30 0 -2.35 0 0.35 16.65 c 0.15 9.10 0.30 18.35 0.30 20.50 l 0 3.85 2 0 2 0 0 2.50 0 2.50 -2 0 -2 0 0 4.90 0 4.85 2.90 2.95 2.85 2.95 0 4.55 c 0 3.55 0.15 4.60 0.75 4.85 0.40 0.20 13.05 0.35 28.15 0.40 l 27.35 0.10 0 -2.70 z  m -58.60 1.35 c 1 -0.30 1.15 -0.60 1 -2.40 -0.15 -1.80 -0.30 -2.05 -1.25 -1.95 -1.30 0.15 -4.15 2.50 -4.15 3.45 0 0.35 0.60 0.75 1.40 0.85 0.75 0.10 1.45 0.25 1.60 0.25 0.15 0.05 0.75 -0.05 1.40 -0.20 z  m -60.85 -0.40 c 0.10 -0.10 0.15 -4.60 0.05 -9.95 -0.15 -9.70 -0.15 -9.75 -1.30 -10.05 -1.50 -0.35 -3.80 -2.70 -3.80 -3.85 0 -1.95 -1.25 -2.35 -7 -2.40 -5 -0.05 -5.50 0.05 -6 0.95 -0.30 0.55 -1 1 -1.50 1 -0.95 0 -1 0.40 -1 11.90 0 6.55 0.15 12.10 0.35 12.25 0.35 0.35 19.85 0.50 20.20 0.15 z  m 118.85 -13.65 l -0.15 -8.40 -24.65 -0.15 -24.60 -0.10 0.10 8.10 0.15 8.15 12 0.25 c 6.60 0.15 17.70 0.30 24.65 0.40 l 12.60 0.15 -0.10 -8.40 z  m 0.10 -11.85 c 0 -0.80 -0.90 -1.55 -1.35 -1.10 -0.40 0.40 0.25 1.80 0.85 1.80 0.25 0 0.50 -0.30 0.50 -0.70 z  m -80 -1.85 c 0 -0.25 -0.35 -0.45 -0.75 -0.45 -0.75 0 -1 0.60 -0.45 1.15 0.40 0.40 1.20 -0.05 1.20 -0.70 z  m -4 -6.55 c 0 -7 -0.30 -6.45 3.25 -6.60 1.40 -0.05 1.50 -0.20 1.65 -2.25 0.10 -1.25 0.05 -2.75 -0.15 -3.40 l -0.25 -1.15 -12.50 0 -12.50 0 0 2.15 c -0.05 1.15 -0.15 4.15 -0.25 6.65 l -0.20 4.50 1.85 0.65 c 2.15 0.80 4.10 2.40 4.10 3.45 0 2 1.15 2.35 8.20 2.35 l 6.80 0 0 -6.35 z  m -28.25 4.45 c 0.85 -2 2 -3.10 4.45 -4.10 l 1.90 -0.80 -0.15 -6.25 c -0.10 -3.45 -0.30 -6.35 -0.45 -6.45 -0.45 -0.30 -32.90 -0.50 -33.20 -0.25 -0.40 0.40 -0.50 16.80 -0.10 17.45 0.20 0.30 0.75 0.55 1.30 0.55 0.50 0 1 0.35 1.20 0.75 0.25 0.65 2.05 0.75 12.30 0.75 l 12.05 0 0.70 -1.65 z  m 5.65 -0.85 c -0.05 -1.35 -0.10 -2.50 -0.15 -2.50 -1.05 0 -3.70 1.75 -4.15 2.75 -0.95 2.05 -0.75 2.25 1.85 2.25 l 2.50 0 -0.05 -2.50 z  m 106.15 -20 c -0.10 -12.70 -0.35 -21.95 -0.65 -22.25 -0.25 -0.30 -9.30 -0.55 -24.40 -0.70 l -24 -0.15 0 22.30 0 22.30 21.15 0.10 c 11.60 0.10 22.70 0.15 24.60 0.15 l 3.50 0 -0.20 -21.75 z  m -78.10 16.50 c -0.05 -4.40 -0.10 -4.50 -1.25 -4.50 -1.15 0 -1.20 0.10 -1.20 4.50 0 4.50 0 4.50 1.25 4.50 l 1.30 0 -0.10 -4.50 z  m -0.55 -33.10 l 0.10 -17.85 -2.10 -0.15 c -2.15 -0.15 -2.15 -0.15 -2.30 -2.25 -0.15 -2.25 -0.15 -2.25 3.15 -2.75 0.85 -0.15 1 -0.55 1 -3.15 l 0 -3 -2.35 -0.15 c -2.15 -0.15 -2.40 -0.25 -2.40 -1.40 0 -1.30 0.35 -1.40 3.90 -1.20 1.95 0.10 2.10 0 2.10 -1.15 0 -1.50 -2.85 -3.85 -4.70 -3.85 -0.90 0 -1.25 -0.30 -1.40 -1.10 l -0.15 -1.15 -27.60 -0.15 -27.65 -0.10 -0.05 3.35 c -0.05 1.90 -0.15 5.30 -0.20 7.65 -0.10 4.80 0.30 6.20 1.80 5.75 0.85 -0.30 0.95 -0.05 0.95 2.25 0 2.30 -0.10 2.55 -0.95 2.25 -0.65 -0.20 -1.15 0 -1.50 0.65 -0.30 0.55 -0.50 7.75 -0.55 18.25 l 0 17.35 30.35 -0.10 30.40 -0.15 0.15 -17.85 z  m 20.50 -9.85 c 0.10 -0.65 0.05 -1.70 -0.10 -2.35 -0.30 -1.15 -0.40 -1.20 -1.70 -0.45 -2.10 1.15 -2.95 1.90 -3.30 3.10 -0.40 1.25 0.50 1.60 3.20 1.15 1.35 -0.20 1.80 -0.55 1.90 -1.45 z  m -0.90 -10.05 c 0 -0.65 -0.35 -1 -1 -1 -1.15 0 -1.30 0.50 -0.40 1.40 0.90 0.90 1.40 0.75 1.40 -0.40 z  m 59.50 -0.25 c 0 -0.45 -0.45 -0.75 -1.25 -0.75 -0.80 0 -1.25 0.30 -1.25 0.75 0 0.45 0.45 0.75 1.25 0.75 0.80 0 1.25 -0.30 1.25 -0.75 z  m -28.50 -10.85 c 0.10 -16.15 -0.10 -26.65 -0.50 -27.40 -0.45 -0.85 -1.60 -0.90 -14.25 -0.95 l -13.70 -0.05 -0.15 6.65 -0.15 6.60 -2.35 0.15 -2.35 0.15 0.10 8.95 0.10 8.95 4.75 0.15 c 2.60 0.10 10.10 0.25 16.65 0.30 l 11.85 0.20 0 -3.70 z  m 7.25 3.10 c 0.20 -0.30 0.15 -7.40 -0.05 -15.75 l -0.35 -15.25 -3 0 -3 0 0.35 4.85 c 0.20 2.65 0.55 5.80 0.85 6.95 0.55 2.20 0.55 2.85 -0.60 12.85 -0.55 5.15 -0.55 5.95 0.05 6.35 1 0.65 5.35 0.60 5.75 0 z  m 7.60 -11.75 c 0.10 -6.60 0 -13.65 -0.15 -15.60 l -0.30 -3.65 -3 0 -3 0 0.40 3.90 c 0.15 2.10 0.30 9.20 0.30 15.75 l -0.10 11.90 2.90 -0.15 2.85 -0.15 0.10 -12 z  m 12.85 7.75 c 0 -2.35 -0.10 -8.90 -0.10 -14.65 l -0.10 -10.35 -1.50 -0.30 c -0.80 -0.20 -1.50 -0.65 -1.50 -1 0 -0.55 -1 -0.70 -4.50 -0.70 l -4.50 0 0 2.15 c 0 1.15 0.45 3.90 1 6.10 1.20 4.80 1.30 10.95 0.25 14.90 -0.80 3 -1 7.45 -0.40 8.05 0.20 0.15 2.85 0.25 5.85 0.20 l 5.55 -0.15 -0.05 -4.25 z  m -83.35 -10.45 c 0.15 -0.60 0.85 -1.05 1.90 -1.25 2 -0.40 4.25 -2.40 4.25 -3.80 0 -0.85 -0.30 -1 -2.20 -1 -3 0 -3.80 -0.40 -3.80 -1.80 0 -1.10 0.20 -1.20 2.50 -1.20 2.75 0 2.70 0.10 2.20 -3.70 -0.35 -2.30 -0.35 -2.30 -2.25 -2.30 l -1.95 0 0 -2.45 0 -2.50 2.15 -0.15 2.10 -0.15 -0.05 -2.25 c -0.05 -1.25 -0.10 -8.95 -0.15 -17.10 l -0.05 -14.90 -2.20 0 c -2.05 0 -2.25 -0.10 -2.40 -1.35 l -0.15 -1.40 -26.45 -0.15 -26.40 -0.10 0.20 1.20 c 0.20 1 0 1.25 -1.20 1.50 l -1.40 0.30 0 17.25 0 17.25 1.25 0 c 1.15 0 1.25 0.15 1.25 2.55 0 2.45 -0.05 2.55 -1.20 2.25 -1.05 -0.25 -1.20 -0.10 -1.35 1.35 -0.10 0.85 -0.15 4.60 -0.05 8.25 l 0.20 6.60 27.50 0 c 26.60 0 27.50 -0.05 27.75 -0.95 z  m -58 -9.40 c -0.10 -0.80 -0.20 -0.25 -0.20 1.10 0 1.40 0.10 2 0.20 1.40 0.10 -0.65 0.10 -1.75 0 -2.50 z  m 84.15 0.35 c 0 -1.90 -0.10 -2 -1.45 -2 -1 0 -1.85 0.45 -2.75 1.55 -0.70 0.85 -1.30 1.75 -1.30 2 0 0.25 1.25 0.45 2.75 0.45 l 2.75 0 0 -2 z  m 57.50 -7.75 c 0.55 -0.65 0.40 -0.75 -0.95 -0.75 -1.50 0 -1.95 0.45 -1.20 1.15 0.55 0.55 1.50 0.40 2.15 -0.40 z  m -137.50 -1.05 c 0 -0.50 -0.35 -0.70 -1.10 -0.60 -1.60 0.25 -1.75 1.40 -0.20 1.40 0.85 0 1.30 -0.25 1.30 -0.80 z  m 57.90 -0.35 c 0.10 -0.50 -0.15 -0.85 -0.55 -0.85 -0.90 0 -1.95 1.20 -1.50 1.70 0.60 0.60 1.90 0.10 2.05 -0.85 z  m 20.10 0.40 c 0 -0.40 -0.35 -0.75 -0.75 -0.75 -0.40 0 -0.75 0.35 -0.75 0.75 0 0.40 0.35 0.75 0.75 0.75 0.40 0 0.75 -0.35 0.75 -0.75 z  m 55.85 -1.25 c 0.15 -0.65 0.65 -0.95 1.35 -0.85 l 1.05 0.10 0 -16.50 0 -16.50 -1.10 -0.15 c -1.15 -0.15 -1.40 -0.75 -1.20 -3.20 l 0.10 -1.40 -3.55 0 -3.55 0 0.20 4.40 c 0.15 2.40 0.50 5.60 0.75 7.10 0.80 4.10 0.70 13.70 -0.15 18.50 -0.40 2.35 -0.75 5.30 -0.75 6.60 l 0 2.35 2.90 0.20 c 1.55 0.10 3.05 0.20 3.25 0.25 0.25 0.05 0.55 -0.35 0.70 -0.90 z  m -30.20 -1 c -0.05 -0.70 -0.10 -9.10 -0.15 -18.70 -0.05 -9.55 -0.20 -17.70 -0.35 -18.10 -0.20 -0.55 -2.35 -0.70 -11.45 -0.70 l -11.20 0 0 1.45 c 0 1.30 -0.15 1.40 -2 1.40 -1.10 0 -2.15 0.10 -2.25 0.25 -0.35 0.35 -0.35 21.80 0 22.40 0.15 0.25 1.20 0.50 2.30 0.50 2.20 0 1.95 -0.90 2.20 7.75 0.05 2.50 0.10 4.65 0.15 4.90 0.05 0.20 5.20 0.30 11.50 0.25 l 11.35 -0.15 -0.10 -1.25 z  m 7.25 -18 l -0.15 -19.50 -3.10 0 -3.15 0 0 2.40 c 0 1.35 0.35 4.75 0.80 7.65 0.95 6.50 0.95 12.30 0 18.95 -0.85 5.50 -1 9.10 -0.45 9.65 0.15 0.20 1.65 0.35 3.30 0.35 l 2.95 0 -0.20 -19.50 z  m 7.50 0.15 l -0.15 -19.40 -3.25 -0.15 -3.30 -0.15 0.40 3.65 c 1.40 12 1.50 16.95 0.65 29.80 l -0.40 5.60 3.10 0 3.05 0 -0.10 -19.35 z  m 7.50 0 l -0.15 -19.40 -3.20 -0.15 -3.20 -0.15 0.35 3.90 c 0.15 2.15 0.50 5.60 0.75 7.65 0.60 4.75 0.60 13.85 0 17.75 -0.85 5.45 -1.10 8.20 -0.80 9 0.25 0.55 1.10 0.75 3.35 0.75 l 3 0 -0.10 -19.35 z  m -45.90 11.60 c 0 -2 -0.70 -2.60 -3.15 -2.60 -2.40 -0.05 -2.90 0.95 -1.30 2.70 2.40 2.55 4.45 2.50 4.45 -0.10 z  m 101.70 -28.15 c 0.55 -0.90 -1.90 -1.05 -20.60 -1.10 -17.55 0 -24.05 0.30 -19.60 1 3.40 0.50 39.90 0.60 40.20 0.10 z  m -228.70 -1.80 c 0 -1.35 -0.70 -2.05 -1.50 -1.55 -0.55 0.35 0.40 2.75 1.10 2.75 0.20 0 0.40 -0.55 0.40 -1.20 z  m 43.50 0.70 c 0 -0.30 -1.20 -0.50 -2.60 -0.55 -1.95 0 -2.40 -0.15 -1.65 -0.45 0.55 -0.25 1.75 -0.45 2.65 -0.45 1.20 -0.05 1.60 -0.25 1.60 -1 0 -1.30 2.55 -1.40 32.25 -1.50 15 -0.05 25.05 -0.30 25.15 -0.60 0.10 -0.25 1.40 -0.45 2.85 -0.45 1.50 0 2.85 -0.25 3.05 -0.55 0.50 -0.85 -2.45 -3.50 -4.35 -3.90 -1.45 -0.30 -1.70 -0.55 -1.70 -1.80 l 0 -1.50 -12.10 -0.15 -12.15 -0.10 0 -24.20 c 0 -27.30 0.45 -24.80 -4.30 -24.80 -2.95 0 -3.05 -0.10 -2.75 -4.35 0.15 -1.90 -0.40 -2.05 -2.50 -0.80 -0.95 0.60 -1.55 1.40 -1.75 2.55 -0.35 1.90 -1.40 1.90 -1.60 -0.05 -0.15 -1.35 -2.20 -3.35 -3.40 -3.35 -0.50 0 -0.70 0.70 -0.70 2.40 0 1.30 -0.20 2.60 -0.40 2.95 -0.25 0.35 -2.25 0.70 -5.20 0.80 -2.65 0.15 -5.10 0.40 -5.35 0.60 -0.30 0.15 -0.55 1.10 -0.55 2.05 0 1.70 0 1.70 -2.25 1.70 -2.05 0 -2.25 -0.10 -2.25 -1.25 l 0 -1.30 -20.10 0.30 c -11.10 0.20 -20.45 0.40 -20.80 0.55 -0.35 0.10 -0.60 0.55 -0.50 1.05 0.10 0.55 -0.30 0.95 -1.10 1.15 l -1.25 0.30 -0.15 26.35 -0.10 26.35 1.25 0 c 1.05 0 1.25 0.25 1.25 1.50 l 0 1.50 8.90 0.10 8.85 0.15 -8.85 0.10 c -4.90 0.10 -8.90 0.35 -8.90 0.60 0 0.30 8.85 0.50 20.75 0.50 13.10 0 20.75 -0.15 20.75 -0.45 z  m 3.40 -1.20 c 0.10 -0.50 -0.05 -1.15 -0.35 -1.45 -0.80 -0.80 -2.20 0.70 -1.75 1.85 0.40 1.10 1.90 0.85 2.10 -0.40 z  m 136.20 0.45 c 0 -0.25 -0.25 -0.55 -0.55 -0.65 -0.30 -0.10 -0.55 0.20 -0.55 0.65 0 0.45 0.25 0.75 0.55 0.65 0.30 -0.10 0.55 -0.40 0.55 -0.65 z  m 44.30 -1.85 c 0.15 -1.05 0.45 -1.35 1.50 -1.50 l 1.35 -0.15 -0.10 -23.75 c -0.10 -13.05 -0.25 -25.15 -0.45 -26.85 -0.25 -2.90 -0.40 -3.15 -1.45 -3.15 -0.85 0 -1.25 -0.30 -1.35 -1.10 -0.15 -1.15 -0.20 -1.15 -10.90 -1.40 -5.90 -0.15 -15.40 -0.20 -21.10 -0.10 l -10.40 0.15 0 1.20 c 0 0.70 -0.15 1.25 -0.35 1.30 -0.25 0 -1.25 0.10 -2.25 0.20 l -1.90 0.20 0 -2.45 c 0 -2.40 -0.05 -2.50 -1.40 -2.50 -1.25 0 -1.50 0.30 -2.05 1.95 -0.70 2.35 -2.65 4.05 -4.60 4.05 -1.40 0 -1.45 -0.05 -1.45 -2.70 0 -2.05 -0.20 -2.75 -0.85 -3 -0.45 -0.20 -1 -0.15 -1.25 0.10 -0.25 0.25 -0.40 3.90 -0.30 8.15 0.15 7.55 0.15 7.70 1.30 7.85 1.20 0.20 1.10 -0.10 1.35 7.10 0.05 1.80 0.15 9.65 0.20 17.50 0.05 7.85 0.25 15 0.40 15.90 l 0.25 1.60 6.60 0 c 7.40 0 8.90 0.25 8.70 1.45 -0.15 0.70 0.95 0.85 9.60 1.05 5.35 0.15 14.50 0.25 20.25 0.25 l 10.50 0 0.15 -1.35 z  m -106.45 -17.25 c -0.15 -15.50 -0.15 -15.90 0.80 -15.90 0.85 0 1.05 0.50 1.40 3 0.25 1.65 0.55 3.10 0.65 3.20 0.60 0.60 3.25 -2.85 3.50 -4.55 0.30 -1.65 0.50 -1.85 1.90 -2 1.85 -0.20 2.05 -0.80 1.55 -5.20 -0.30 -3.10 -0.40 -3.20 -1.75 -3.20 -1.20 0 -1.40 -0.20 -1.70 -2 -0.20 -1.40 -0.75 -2.30 -1.95 -3.25 -0.95 -0.70 -1.85 -1.25 -2 -1.25 -0.15 0 -0.35 1.40 -0.45 3.15 -0.15 2.70 -0.25 3.10 -1.15 3.10 -0.95 0 -1 -0.35 -1.05 -4.90 -0.10 -3.70 -0.30 -5.10 -0.90 -5.80 -0.50 -0.55 -0.80 -1.80 -0.80 -3.45 0 -2.25 -0.15 -2.60 -0.95 -2.60 -1.15 0 -3.55 2.70 -3.55 4.05 0 1.50 -0.85 1.10 -1.45 -0.65 -0.70 -2.05 -1.95 -3.40 -3.15 -3.40 -0.75 0 -0.90 0.40 -0.90 2.15 0 4.05 -0.25 4.35 -3.30 4.20 -1.70 -0.10 -2.95 0.10 -3.25 0.45 -0.25 0.35 -0.45 2.50 -0.35 4.80 l 0.15 4.15 2.05 0.15 2 0.15 -0.05 5.35 -0.05 5.35 -1.90 0.25 c -1 0.15 -1.85 0.40 -1.80 0.65 0 0.20 0 1.25 0 2.30 0 1.85 0.10 2 1.65 2.15 1.45 0.15 1.60 0.30 1.75 2.05 0.15 1.80 0.15 1.85 -1.60 1.85 -1.70 0 -1.75 0.05 -1.90 2.10 -0.15 2.05 -0.20 2.15 -2.10 2.45 -1.35 0.20 -2.45 0.85 -3.40 1.90 -1.70 1.90 -1.45 2.55 0.80 2.55 3.30 0 4.80 0.55 4.75 1.70 -0.30 3.40 0 4.30 1.55 4.60 1.75 0.40 4 3.10 4 4.90 l 0 1.30 6.55 0 6.50 0 -0.10 -15.85 z  m 5.25 13.55 c 0.45 -0.15 0.80 -0.80 0.80 -1.45 0 -1.55 1.20 -2.45 2.75 -2.05 1.25 0.30 1.25 0.25 1.25 -2.70 l 0 -3 -2 0 c -1.35 0 -2.15 -0.25 -2.30 -0.75 -0.40 -1.05 -1.30 -0.95 -2.90 0.30 -1.25 0.95 -1.30 1.25 -1.30 5.50 l 0 4.45 1.45 0 c 0.80 0 1.80 -0.15 2.25 -0.30 z  m 106.80 -4.95 c 0 -2.15 -0.20 -3.75 -0.50 -3.75 -0.30 0 -0.50 1.60 -0.50 3.75 0 2.15 0.20 3.75 0.50 3.75 0.30 0 0.50 -1.60 0.50 -3.75 z  m -94 1.75 c 0 -0.25 0.70 -0.50 1.50 -0.50 1.35 0 1.50 -0.15 1.50 -1.55 0 -1.20 -0.15 -1.45 -0.60 -1.05 -0.35 0.25 -1.20 0.60 -1.90 0.70 -0.95 0.10 -1.30 0.50 -1.40 1.55 -0.10 0.75 0.05 1.35 0.35 1.35 0.30 0 0.55 -0.20 0.55 -0.50 z  m 27.50 -0.05 c 0 -0.30 0.60 -0.45 1.30 -0.35 1 0.10 1.45 -0.15 1.75 -0.95 0.65 -1.70 -0.65 -2.45 -2.40 -1.30 -1.75 1.10 -2.15 1.65 -1.80 2.50 0.30 0.80 1.15 0.90 1.15 0.10 z  m -29.60 -1.65 c 0.20 -1.45 -0.35 -1.60 -2.85 -0.75 -0.95 0.35 -1.55 0.90 -1.55 1.45 0 0.75 0.35 0.90 2.15 0.75 1.85 -0.10 2.10 -0.30 2.25 -1.45 z  m 10.50 0.50 c 0.10 -0.50 0.05 -1.15 -0.05 -1.55 -0.40 -0.95 -3.85 0.65 -3.85 1.85 0 1.20 3.65 0.90 3.90 -0.30 z  m 4.40 0.70 c 0.90 0 1.20 -0.25 1.20 -1.15 0 -1.70 -0.40 -1.90 -2.30 -1 -1.05 0.55 -1.70 1.20 -1.70 1.80 0 0.65 0.25 0.85 0.80 0.65 0.45 -0.15 1.35 -0.30 2 -0.30 z  m 6.70 -1.35 c 0 -1.80 -0.30 -1.95 -1.70 -0.90 -0.55 0.40 -1.40 0.75 -1.90 0.75 -1 0 -1.05 0.10 -0.65 1.10 0.20 0.45 1 0.70 2.25 0.65 1.90 0 2 -0.05 2 -1.60 z  m 5.50 0.10 c 0 -2 0 -2 -2.15 -0.95 -2.45 1.30 -2.60 1.90 -0.45 2.25 1 0.15 2 0.35 2.25 0.40 0.20 0 0.35 -0.75 0.35 -1.70 z  m -1 -4 c 0 -0.80 0.35 -1.20 1.25 -1.35 1.50 -0.30 1.75 -0.10 1.75 1.70 0 1.55 0.75 1.75 2.25 0.60 0.90 -0.70 0.95 -1.25 0.85 -10.30 -0.10 -9.05 -0.15 -9.65 -1.20 -10.75 -1.50 -1.60 -1.90 -1.45 -1.90 0.60 0 1.60 -0.10 1.75 -1.50 1.75 -1.05 0 -1.50 -0.25 -1.50 -0.85 0 -0.90 -1.40 -2.65 -2.10 -2.65 -0.20 0 -0.40 0.80 -0.40 1.75 0 1.20 -0.25 1.75 -0.75 1.85 -0.40 0 -1 0.05 -1.25 0.10 -0.30 0.05 -0.90 -0.70 -1.40 -1.65 -1.20 -2.40 -2.15 -2.60 -1.75 -0.40 0.30 1.90 -0.15 2.45 -1.70 2.05 -0.95 -0.25 -1.05 -0.65 -0.95 -4.10 l 0.05 -3.85 -1.40 0.15 c -0.75 0.10 -1.75 -0.10 -2.10 -0.40 -0.60 -0.50 -0.80 -0.45 -1 0.20 -0.75 2.40 -0.90 2.60 -1.10 1.45 -0.15 -0.80 -0.55 -1.15 -1.35 -1.15 -0.65 0 -1.45 -0.35 -1.80 -0.75 -0.95 -1.15 -1.35 -0.90 -1.10 0.70 0.25 1.75 -0.85 2.65 -1.25 1.05 -0.20 -0.80 -0.55 -1 -1.30 -0.80 -0.65 0.15 -1.25 -0.10 -1.65 -0.60 -0.55 -0.75 -0.65 -0.70 -0.95 0.50 -0.45 1.75 -1.75 2.30 -1.75 0.75 0 -1 -0.20 -1.15 -1.75 -0.95 l -1.75 0.20 0 3.15 0 3.20 -1.85 0.15 c -1.55 0.10 -2 0.45 -2.60 1.65 -0.95 2.10 -2.05 3.25 -3.10 3.25 -1.95 0 -2.45 1.30 -2.45 6.55 0 4.95 0 5 1.15 4.65 0.60 -0.15 1.45 -0.65 1.90 -1 1.10 -1 1.95 -0.85 1.95 0.30 0 1.20 1.70 2.15 3.40 1.85 1.90 -0.35 2.60 0.10 2.60 1.70 0 2.05 1.25 1.85 2.30 -0.30 0.45 -0.95 1.05 -1.75 1.30 -1.75 1.20 0 2.40 1.15 2.40 2.30 0 1.75 1.15 1.30 1.75 -0.70 0.30 -1.05 0.70 -1.55 1.15 -1.35 0.35 0.15 1 0.25 1.40 0.25 0.45 0 0.70 0.55 0.70 1.50 0 2.10 1.35 1.95 2.30 -0.30 0.60 -1.35 1 -1.75 1.85 -1.60 0.85 0.10 1.15 0.55 1.25 1.80 0.20 2.15 1.65 2 2.30 -0.30 0.25 -0.85 0.75 -1.60 1.10 -1.60 1.50 0 2.20 0.65 2.20 2.05 0 2 1.45 1.95 1.85 -0.05 0.35 -1.85 0.85 -2.20 2.15 -1.50 0.65 0.35 1 1.05 1 1.95 0 0.75 0.15 1.55 0.35 1.70 0.55 0.60 2.15 -1.25 2.15 -2.40 z  m -68.40 -1.45 c 0.60 -2.80 1.10 -3.50 3.65 -4.75 l 2.30 -1.15 -0.05 -15.30 c -0.05 -8.45 -0.20 -17.20 -0.35 -19.50 l -0.30 -4.15 -6.55 0.15 -6.55 0.15 -0.05 1.95 c -0.05 1.05 -0.35 2.10 -0.75 2.40 -0.55 0.35 -0.55 0.55 -0.05 0.75 0.35 0.10 0.60 1.10 0.60 2.25 l 0 2.05 -2.30 -0.30 c -1.25 -0.10 -3.05 0 -4 0.30 l -1.70 0.50 0 18.10 c 0 9.95 0.10 18.20 0.25 18.30 0.10 0.15 3.65 0.20 7.85 0.20 l 7.60 -0.10 0.40 -1.85 z  m 138.40 -6.35 c 0 -3.80 -0.15 -5 -0.60 -4.80 -0.45 0.10 -0.65 1.25 -0.60 3.40 0.10 5.55 0.20 6.45 0.70 6.45 0.30 0 0.50 -2 0.50 -5.05 z  m -0.10 -15.95 c -0.10 -2.80 -0.35 -4.25 -0.75 -4.40 -0.50 -0.15 -0.65 0.85 -0.65 3.80 0 4.30 0.35 5.95 1.10 5.20 0.25 -0.25 0.40 -2.30 0.30 -4.60 z  m -128.15 1.25 c 0 -1.15 -0.20 -1.50 -1 -1.50 -0.75 0 -1.05 0.40 -1.15 1.65 -0.15 1.50 -0.05 1.65 1 1.50 0.90 -0.10 1.15 -0.45 1.15 -1.65 z  m 53.45 0.95 c 0.65 -1.70 0.30 -2.05 -1.95 -2.05 -2.45 0 -2.95 0.60 -1.05 1.35 0.65 0.25 1.35 0.70 1.55 0.95 0.45 0.80 1.10 0.65 1.45 -0.25 z  m 5.40 0 c 0.15 -0.15 0.20 -0.65 0.05 -1.10 -0.15 -0.65 -0.75 -0.90 -2.20 -0.90 -2.30 -0.10 -2.50 0.45 -0.55 1.45 1.50 0.85 2.30 1 2.70 0.55 z  m 5.40 -0.90 c 0 -1.05 -0.25 -1.15 -2 -1.15 -2.40 0 -2.55 0.40 -0.35 1.45 2.25 1.05 2.35 1.05 2.35 -0.30 z  m -64 -5.55 c 0 -1.40 -0.20 -1.75 -0.95 -1.75 -1 0 -1.55 0.90 -1.55 2.55 0 0.70 0.35 0.95 1.25 0.95 1.10 0 1.25 -0.20 1.25 -1.75 z  m 27.40 -5.85 l 0.15 -2.90 1.95 0 2 0 0 -5 0 -5 -4.75 0 -4.75 0 0 2.25 0 2.25 -2.25 0 -2.25 0 -0.05 2 c -0.05 1.10 -0.10 2.25 -0.15 2.60 -0.05 0.30 0.60 0.75 1.40 0.95 1.85 0.50 3.70 2.25 4.60 4.35 0.60 1.45 0.85 1.65 2.30 1.50 1.65 -0.15 1.65 -0.20 1.80 -3 z  m 14.10 -4.85 c 0 -6.45 -0.15 -8.05 -0.75 -8.55 -0.50 -0.40 -0.75 -1.55 -0.75 -3.30 0 -1.50 -0.15 -2.70 -0.30 -2.70 -0.20 0 -1.10 0.45 -2 1.05 -1.15 0.70 -1.85 1.65 -2.25 3 -0.45 1.35 -0.90 1.95 -1.55 1.95 -0.85 0 -0.90 0.55 -0.90 8.25 l 0 8.25 4.25 0 4.25 0 0 -7.95 z  m 20.35 1.85 c -0.20 -3.40 -0.30 -7.10 -0.35 -8.25 l 0 -2.10 -3.85 0.05 c -7.90 0.05 -7.55 0.15 -8.15 -2.05 -0.50 -1.95 -2.50 -4.05 -3.80 -4.05 -0.50 0 -0.70 0.80 -0.70 3.05 0 2.60 -0.15 3.10 -1 3.30 -0.95 0.25 -1 0.70 -1 8.20 l 0 7.95 9.55 0 9.55 0 -0.25 -6.10 z  m -83.35 -1.85 c 0 -0.25 -0.35 -0.85 -0.80 -1.25 -0.90 -0.90 -0.15 -1.05 1.35 -0.30 0.85 0.50 0.95 0.35 0.95 -1.50 0 -2.20 -0.30 -2.45 -1.30 -1.15 -0.35 0.50 -0.80 0.75 -1 0.50 -0.20 -0.20 -0.10 -0.65 0.20 -0.95 1.20 -1.20 0.65 -1.90 -1.40 -1.90 -1.45 0 -2 0.20 -2 0.75 0 0.45 0.35 0.90 0.75 1.05 0.40 0.20 0.75 0.50 0.75 0.75 0 0.30 -0.40 0.30 -0.95 0 -1.15 -0.65 -1.55 -0.25 -1.55 1.35 0 1.05 0.15 1.15 1.40 0.85 1.10 -0.25 1.25 -0.20 0.75 0.30 -1.20 1.20 -0.75 1.95 1.10 1.95 0.95 0 1.75 -0.20 1.75 -0.45 z  m 21.50 -4.85 c 0 -2.20 -0.05 -2.25 -1.35 -2.10 -1.05 0.10 -1.35 0.40 -1.25 1.15 0.35 2.65 0.65 3.25 1.60 3.25 0.85 0 1 -0.35 1 -2.30 z  m -103.70 -0.25 c 0.35 -0.60 -0.75 -1.55 -1.40 -1.15 -0.20 0.15 -0.40 0.60 -0.40 1 0 0.85 1.30 0.95 1.80 0.15 z  m 123.60 -1.10 c 0.10 -0.50 -0.15 -0.85 -0.60 -0.85 -0.90 0 -1.45 0.80 -1.05 1.55 0.45 0.70 1.45 0.30 1.65 -0.70 z  m -78 -0.25 c 0.10 -0.35 -0.30 -0.60 -0.85 -0.60 -1.05 0 -1.35 0.55 -0.70 1.20 0.45 0.45 1.30 0.10 1.55 -0.60 z  m 172.70 -1.80 c 0.20 -0.30 0.65 -0.25 1.05 0.15 0.50 0.40 1.30 0.45 2.35 0.20 2.20 -0.60 1.90 -1.40 -0.50 -1.40 -9.05 0.15 -12.50 0.30 -12.50 0.70 0 0.85 9 1.15 9.60 0.35 z  m -218.60 -112.50 c -0.95 -1.20 -1.35 -0.95 -1.10 0.75 0.20 1.40 0.30 1.45 1 0.75 0.65 -0.60 0.65 -0.90 0.10 -1.50 z  m 98.80 -17.55 c 0.05 -10.15 -0.10 -19 -0.35 -19.60 -0.25 -0.65 -0.85 -1.15 -1.40 -1.15 -1.20 0 -3.50 -2.70 -3.90 -4.55 -0.15 -0.75 -0.65 -1.45 -1.10 -1.55 -0.45 -0.05 -4 -0.10 -7.90 0 l -7.15 0.15 0 18 0 17.95 1.20 0 c 1.65 0 2.20 1 1.05 1.80 -0.80 0.60 -0.85 0.70 -0.10 1 1.45 0.55 0.95 1.20 -0.65 0.90 -1.45 -0.30 -1.50 -0.25 -1.50 1.50 0 1.75 1 2.50 1.75 1.30 0.15 -0.25 0.55 -0.50 0.85 -0.50 0.30 0 0.20 0.40 -0.25 0.90 -1.25 1.35 -1.05 1.60 1.05 1.60 2.40 0 2.85 -0.40 1.75 -1.60 -0.45 -0.50 -0.65 -1.05 -0.45 -1.25 0.20 -0.25 0.60 0 0.85 0.50 0.35 0.60 0.85 0.75 1.75 0.55 1 -0.25 1.20 -0.15 1.20 0.90 0 0.70 0.15 1.40 0.35 1.60 0.20 0.15 3.15 0.25 6.60 0.20 l 6.30 -0.15 0.05 -18.50 z  m 10.40 18.15 c 0.70 -0.30 1.75 -1.55 2.35 -2.80 l 1.10 -2.20 0.70 1.65 c 0.95 2.30 2.10 3.45 3.40 3.45 1 0 1.05 -0.20 0.95 -2.75 -0.10 -1.95 0.05 -2.85 0.55 -3.15 0.55 -0.30 0.75 -2.05 0.85 -8.10 l 0.15 -7.75 6.25 -0.15 c 4.85 -0.10 6.30 -0.30 6.65 -0.85 0.25 -0.50 1.25 -0.75 3.10 -0.75 1.50 0 2.75 -0.20 2.75 -0.45 0 -0.80 -2.65 -3.05 -3.95 -3.35 -2.50 -0.55 -2.55 -0.60 -2.55 -3.20 l 0 -2.50 -6.20 0 -6.15 0 -0.10 -23.30 c -0.05 -17.35 -0.25 -23.50 -0.70 -24.25 -0.80 -1.35 0.90 -4.40 3.15 -5.55 2.20 -1.10 2.50 -1.70 2.50 -4.70 0 -2.85 -0.60 -3.70 -2.60 -3.70 -1.30 0 -1.40 -0.10 -1.40 -2.20 0 -2.20 0 -2.25 1.90 -2.40 1.75 -0.15 1.85 -0.25 2 -2.05 0.20 -2.10 -0.55 -3.35 -1.90 -3.35 -2.10 0 -5.05 -5.30 -3.55 -6.25 0.60 -0.35 0.15 -68.30 -0.45 -68.95 -1.20 -1.20 2.45 -6.30 4.55 -6.30 0.75 0 1 -0.30 0.85 -1.10 -0.10 -0.90 -0.55 -1.20 -1.70 -1.30 -1.75 -0.15 -2.25 -1.25 -1.80 -4.05 0.20 -1.30 0.45 -1.55 1.60 -1.55 1.55 0 2.35 -1.25 1.45 -2.30 -0.30 -0.40 -0.95 -0.70 -1.45 -0.70 -1.70 0 -4.05 -3.60 -3.45 -5.25 0.10 -0.25 0.30 -10.60 0.45 -23 l 0.25 -22.50 2.15 -0.15 c 1.60 -0.10 2.10 -0.35 2.10 -1 0 -1.40 -0.65 -1.95 -2.60 -2.30 -1.05 -0.20 -2 -0.55 -2.10 -0.75 -0.15 -0.25 -0.30 -12.05 -0.30 -26.25 l -0.05 -25.80 -6.50 0 -6.50 0 0.75 1.10 c 0.45 0.60 0.80 1.55 0.80 2.10 0 1.40 -2.20 4.05 -4.15 5 -1.35 0.60 -1.70 1.05 -1.50 1.80 0.20 0.75 0.65 1 1.60 0.95 3.20 -0.25 3.05 -0.65 3.05 7.60 0 5.05 -0.15 7.40 -0.50 7.20 -0.30 -0.20 -0.40 -0.80 -0.20 -1.40 0.30 -1.05 0.30 -1.05 -0.75 0.10 l -1.05 1.20 0 -2.50 c 0 -1.40 -0.15 -3.90 -0.30 -5.60 l -0.35 -3.05 -2.65 0 c -2.50 0 -2.70 -0.10 -2.70 -1.20 0 -0.65 0.35 -1.30 0.75 -1.50 0.45 -0.15 0.75 -0.90 0.75 -2 0 -1.60 0.15 -1.80 1.80 -2.25 2.20 -0.60 4.20 -2.35 4.20 -3.65 0 -0.75 -0.45 -0.90 -3 -0.90 -2.65 0 -3 -0.10 -3 -1 0 -0.90 -0.35 -1 -2.95 -1 -1.65 0 -3.05 -0.20 -3.15 -0.45 -0.10 -0.30 -7.90 -0.30 -20.15 -0.05 -11 0.25 -21.20 0.45 -22.60 0.50 -2.50 0 -2.65 0.10 -2.65 1.25 0 1 -0.25 1.25 -1.25 1.25 l -1.25 0 0 16.45 c 0 9.05 0.10 16.75 0.25 17.15 0.20 0.50 2.80 0.65 13.15 0.50 7.05 -0.05 13.95 -0.35 15.35 -0.60 1.35 -0.30 6.65 -0.50 11.75 -0.45 9 0.05 9.25 0 9.40 -1 0.10 -0.60 0.40 -1.05 0.70 -1.05 0.25 0 0.40 0.35 0.20 0.75 -0.15 0.40 -0.05 0.75 0.25 0.75 0.25 0 0.60 -0.35 0.75 -0.75 0.20 -0.40 0.70 -0.75 1.20 -0.75 0.50 0 1.15 -0.35 1.55 -0.80 0.45 -0.55 1.10 -0.70 2.30 -0.45 1.80 0.30 1.80 0.30 1.65 -2.80 -0.05 -1.05 0.15 -2 0.45 -2.20 0.30 -0.15 0.55 0 0.55 0.35 0 0.45 0.15 0.45 0.50 -0.10 0.60 -0.95 0.55 -2.75 0.50 18.85 -0.05 12.55 0.10 18.65 0.50 18.90 0.60 0.40 0.15 2.55 -0.95 4.20 -0.40 0.65 -1.50 1.50 -2.40 1.85 -1.45 0.65 -1.65 0.95 -1.65 2.65 0 1.80 0.15 2 1.75 2.55 1.05 0.35 2.10 1.20 2.80 2.30 1 1.60 1 1.95 0.45 3.75 -0.50 1.50 -0.60 7.30 -0.30 27.70 0.35 22.65 0.30 25.75 -0.40 25.75 -0.40 0 -1 0.80 -1.30 1.90 -0.80 2.40 -2.20 3.90 -4.05 4.30 -1.10 0.20 -1.50 0.55 -1.35 1.15 0.15 0.75 0.80 0.95 3.80 1.05 l 3.60 0.15 0 13.25 0 13.25 -1.10 -0.10 c -1.30 -0.10 -3.90 0.85 -3.90 1.40 0.05 0.25 1 0.85 2.15 1.40 2.75 1.30 4.35 4.10 3.40 5.85 -0.50 0.95 -0.55 6.65 -0.30 27.80 l 0.30 26.60 -2.55 0 c -2.15 0 -2.50 0.15 -2.50 1 0 0.70 0.60 1.25 1.95 1.80 2.95 1.20 3.65 2.55 3.25 6.50 -0.25 2.45 -0.20 3.40 0.30 3.70 0.50 0.30 0.40 0.85 -0.45 2.60 -1 2.05 -1.90 2.85 -4.15 3.60 -0.65 0.20 -0.90 0.95 -1 2.90 l -0.15 2.65 -2.95 0.35 c -1.60 0.20 -3.05 0.50 -3.20 0.65 -0.70 0.70 1.90 3.05 3.95 3.55 2.05 0.50 2.20 0.65 2.35 2.35 0.15 1.65 0.35 1.85 1.90 2.15 1.55 0.30 1.70 0.45 1.70 2 0 1.35 -0.20 1.70 -0.95 1.70 -2.20 0 -2.55 0.50 -2.55 3.50 l 0 2.95 1.65 0.15 c 1.35 0.10 1.60 0.35 1.60 1.40 0 1.05 -0.25 1.30 -1.60 1.40 l -1.65 0.15 0 2.95 c 0 3.10 0.35 3.50 2.80 3.50 1.20 0 1.20 0.05 1.20 4.75 0 4.35 0.10 4.75 0.95 4.75 1.20 0 1.55 0.95 1.55 4.05 0 2.70 -0.05 2.70 1.70 1.85 z  m 33.55 -0.70 c 0 -0.50 -0.40 -1 -0.85 -1.10 -0.90 -0.15 -1.30 1.35 -0.55 2.10 0.60 0.55 1.40 0 1.40 -1 z  m 10.65 0.95 c 4.10 -0.30 4.15 -0.35 4.45 -1.75 0.35 -1.65 3.20 -3.90 5.05 -3.90 1.05 0 1.15 -0.20 1 -2.35 l -0.15 -2.40 -9 0.15 c -4.95 0.05 -9.30 0.20 -9.60 0.35 -0.45 0.15 -0.65 1.60 -0.65 4.95 0 5.75 -0.15 5.70 8.90 4.95 z  m -107.40 -1.20 c 0 -0.25 -0.35 -0.45 -0.75 -0.45 -0.75 0 -1 0.60 -0.45 1.15 0.40 0.40 1.20 -0.05 1.20 -0.70 z  m 57.15 -0.60 c -0.05 -1.15 0.10 -1.35 1.20 -1.35 1.10 0 1.20 -0.10 0.65 -0.75 -0.40 -0.45 -1.15 -0.70 -1.95 -0.55 -0.70 0.10 -1.50 0.25 -1.80 0.25 -0.25 0.05 -0.05 0.40 0.45 0.80 0.85 0.65 0.90 0.75 0.15 0.75 -0.60 0 -0.85 0.40 -0.85 1.30 0 1.05 0.20 1.25 1.15 1.10 0.85 -0.10 1.10 -0.45 1 -1.55 z  m 20.75 0.50 c 0.20 -1 -1.25 -1.70 -2 -0.95 -0.75 0.75 -0.05 2.20 0.95 2 0.50 -0.10 0.95 -0.55 1.05 -1.05 z  m 2.60 0.65 c 0 -0.25 -0.45 -0.50 -1 -0.50 -0.55 0 -1 0.25 -1 0.50 0 0.30 0.45 0.50 1 0.50 0.55 0 1 -0.20 1 -0.50 z  m 42 -2.25 c 0 -2.70 0 -2.75 1.45 -2.75 1.80 0 5.05 2.85 5.05 4.45 0 0.80 0.30 1.05 1.45 1.05 1.20 0 1.50 -0.25 1.70 -1.50 0.20 -0.80 0.20 -1.85 0 -2.35 -0.25 -0.65 -0.10 -0.75 0.55 -0.50 0.50 0.20 1.65 0.35 2.60 0.35 1.55 0 1.75 0.15 1.45 1 -0.30 1 -0.15 1 20.55 0.90 l 20.90 -0.15 0.30 -1.25 c 0.20 -0.90 0.65 -1.30 1.70 -1.40 l 1.40 -0.20 -0.35 -25.80 c -0.20 -14.20 -0.45 -26 -0.60 -26.20 -0.10 -0.25 -0.75 -0.40 -1.40 -0.40 -0.90 0 -1.20 -0.30 -1.35 -1.35 -0.10 -0.80 -0.35 -1.40 -0.65 -1.40 -0.25 0.05 -9.55 0.20 -20.60 0.45 l -20.15 0.40 0 1.15 c 0 0.95 -0.30 1.10 -2.10 1.15 -2.45 0.10 -2.60 0.25 -3.35 2.65 -0.70 2.15 -1.75 3.20 -3.65 3.65 -1.65 0.40 -1.60 -0.55 -1.40 16.40 l 0.10 11.85 -3.45 0.15 c -2.85 0.15 -3.40 0.30 -3.35 1.05 0 0.45 0.05 5.45 0.10 11.10 l 0.10 10.25 1.50 0 c 1.50 0 1.50 -0.05 1.50 -2.75 z  m 13.50 1.90 c -0.05 -0.95 -1.50 -2.25 -2.25 -2 -1.10 0.45 -0.95 1.30 0.40 1.85 1.40 0.55 1.85 0.60 1.85 0.15 z  m 46 -0.85 c 0 -0.80 -0.70 -1.80 -1.25 -1.80 -0.85 0 -1.40 0.85 -1 1.50 0.30 0.50 2.25 0.75 2.25 0.30 z  m -105 -10.05 c 0 -7.90 -0.05 -8.25 -1 -8.25 -0.95 0 -1 0.35 -1 7.45 0 4.10 -0.15 7.80 -0.30 8.25 -0.25 0.60 0 0.80 1 0.80 l 1.30 0 0 -8.25 z  m 12.50 6.25 c 0 -0.25 0.85 -0.50 1.90 -0.50 l 1.85 0 0.05 -4.50 c 0.05 -3.60 -0.10 -4.50 -0.75 -4.75 -0.40 -0.15 -3.10 -0.15 -5.90 0.05 l -5.15 0.35 -0.05 1.80 c 0 1 -0.10 2.70 -0.15 3.80 -0.25 2.70 0.45 3.90 2 3.60 0.70 -0.10 1.35 0 1.50 0.20 0.35 0.60 4.70 0.55 4.70 -0.05 z  m 6.35 -6.35 l -0.15 -6.40 -8.35 -0.15 -8.35 -0.10 0 5.25 c 0 3.15 0.20 5.25 0.50 5.25 0.30 0 0.50 -1.75 0.50 -4.25 l 0 -4.25 7.50 0 7.50 0 0 5.50 c 0 3.10 0.20 5.50 0.45 5.50 0.30 0 0.45 -2.65 0.40 -6.35 z  m -37.95 4.15 c 0.20 -1.75 -0.35 -2.35 -1.80 -2 -0.85 0.25 -1.10 0.70 -1.10 2.05 0 1.60 0.10 1.70 1.40 1.55 1.05 -0.10 1.40 -0.45 1.50 -1.60 z  m 126.10 -4.60 c 0 -2.05 -0.20 -3.15 -0.50 -2.95 -0.25 0.15 -0.50 1.65 -0.50 3.30 0 1.65 0.20 2.95 0.50 2.95 0.30 0 0.50 -1.45 0.50 -3.30 z  m -126.25 -0.95 c 0 -1.25 -0.20 -1.50 -1.35 -1.65 -1.30 -0.15 -1.40 -0.05 -1.40 1.65 0 1.70 0.10 1.80 1.35 1.65 1.20 -0.15 1.40 -0.40 1.40 -1.65 z  m 45.25 -1.85 c 0 -1.75 0.80 -2.65 2.30 -2.65 1.80 0 2.10 -1.10 0.55 -1.70 -0.70 -0.30 -1.80 -1.25 -2.50 -2.15 -1 -1.30 -1.65 -1.65 -2.95 -1.65 l -1.65 0 -0.15 3.95 c -0.10 2.20 -0.05 4.25 0.10 4.65 0.15 0.40 1.05 0.65 2.30 0.65 1.75 0 2 -0.15 2 -1.10 z  m 15 -2.40 c 0 -0.55 -0.40 -1.15 -0.85 -1.30 -0.50 -0.15 -1.50 -0.55 -2.25 -0.95 -1.40 -0.70 -1.40 -0.70 -1.40 0.80 0 1.45 0.10 1.50 1.50 1.20 1.10 -0.25 1.60 -0.15 1.80 0.45 0.45 1.15 1.20 1 1.20 -0.20 z  m -5.60 -0.35 c -0.10 -0.50 -0.65 -0.95 -1.30 -1.05 -0.60 -0.10 -1.10 -0.40 -1.10 -0.65 0 -0.25 -0.35 -0.45 -0.75 -0.45 -0.45 0 -0.75 0.50 -0.75 1.30 0 1.15 0.15 1.25 1.20 1 0.70 -0.15 1.40 -0.10 1.55 0.20 0.50 0.85 1.35 0.55 1.15 -0.35 z  m 71.60 -5.95 c 0 -3.60 -0.15 -4.75 -0.60 -4.55 -0.35 0.10 -0.65 0.80 -0.60 1.50 0.15 6.35 0.25 7.85 0.70 7.85 0.30 0 0.50 -1.95 0.50 -4.80 z  m -72.20 2.05 c -0.35 -1.70 -0.30 -1.75 1.20 -1.75 1.25 0 1.50 0.20 1.50 1.15 0 1.30 0.85 2.35 1.90 2.35 0.55 0 0.65 -0.45 0.45 -1.70 -0.25 -1.45 -0.10 -1.75 0.95 -2.25 l 1.20 -0.55 -0.20 -9.30 c -0.20 -8.65 -0.30 -9.35 -1.25 -10.25 -0.60 -0.55 -1.05 -1.55 -1.05 -2.25 0 -1.80 -1.70 -1.40 -1.90 0.45 -0.15 1.15 -0.40 1.35 -1.65 1.35 -1.30 0 -1.45 -0.15 -1.45 -1.50 0 -0.80 -0.20 -1.50 -0.45 -1.50 -1.25 0 -2.05 0.70 -2.05 1.80 0 1 -0.25 1.20 -1.50 1.20 -1.35 0 -1.50 -0.15 -1.50 -1.50 0 -2.05 -1.25 -1.95 -2.55 0.25 -1.15 1.95 -1.05 1.85 -2.15 1.45 -0.50 -0.20 -0.80 -0.90 -0.80 -1.75 0 -2.05 -1.30 -1.85 -2.05 0.30 -0.50 1.30 -0.95 1.75 -1.75 1.75 -1.15 0 -2.05 -1.55 -1.45 -2.45 0.15 -0.25 0.05 -0.60 -0.20 -0.75 -0.90 -0.55 -2 0.30 -2.15 1.60 -0.10 1.05 -0.45 1.40 -1.50 1.50 -1.30 0.15 -1.40 0.05 -1.40 -1.60 0 -2 -0.30 -2.15 -1.90 -1 -0.90 0.60 -1.10 1.25 -1.10 3.45 0 1.95 -0.15 2.65 -0.60 2.50 -0.90 -0.35 -3.90 1.60 -3.90 2.50 0 0.55 0.55 0.75 2.25 0.75 l 2.20 0 0.15 4.35 0.15 4.30 1.70 0.60 c 2.20 0.70 4.05 2.90 4.05 4.80 0 1.35 0.15 1.45 1.90 1.45 l 1.85 0 -0.20 -5.75 c -0.15 -5.55 -0.15 -5.75 0.90 -5.75 1 0 1.05 0.25 1.05 4.50 l 0 4.50 1.65 0.05 c 0.85 0.05 1.85 0.05 2.20 0 0.30 -0.05 0.95 0.70 1.45 1.70 1.10 2.30 2.20 2.30 2.20 0 0 -1.50 0.15 -1.70 1.05 -1.60 1.20 0.20 1.95 1.20 1.95 2.70 0 1 0.70 1.45 2.45 1.60 0.50 0.05 0.60 -0.40 0.35 -1.70 z  m 10.70 -2.75 c 0 -0.25 -0.65 -0.50 -1.50 -0.50 -0.80 0 -1.50 0.25 -1.50 0.50 0 0.30 0.70 0.50 1.50 0.50 0.85 0 1.50 -0.20 1.50 -0.50 z  m 61.50 -14.55 c 0 -3.35 -0.15 -4.45 -0.65 -4.45 -0.50 0 -0.65 1 -0.55 4.15 0.10 5.40 0.10 5.45 0.70 5.10 0.30 -0.15 0.50 -2.30 0.50 -4.80 z  m -100.10 4.20 c 1.70 -0.40 1 -1.45 -0.85 -1.25 -1 0.10 -1.65 -0.10 -1.85 -0.55 -0.45 -1.20 1.10 -3.65 2.80 -4.35 1.35 -0.55 1.50 -0.80 1.45 -2.95 0 -1.25 -0.20 -3.30 -0.35 -4.55 -0.30 -2 -0.50 -2.25 -1.85 -2.50 -1.20 -0.20 -1.55 -0.55 -1.65 -1.65 -0.15 -1.10 -0.40 -1.35 -1.55 -1.35 -0.75 0 -1.60 -0.25 -1.90 -0.55 -0.35 -0.35 -1.15 -0.45 -1.85 -0.25 l -1.30 0.30 -0.05 7.15 c -0.05 3.90 -0.05 8.15 -0.05 9.40 0 1.30 0.15 2.60 0.35 2.90 0.35 0.60 6.30 0.70 8.65 0.20 z  m 38.60 -7.90 c 0 -0.80 -2.25 -1.05 -2.70 -0.30 -0.40 0.60 0.20 1.05 1.55 1.05 0.70 0 1.15 -0.30 1.15 -0.75 z  m 1.60 -5.60 l 0.15 -2.85 2.05 -0.45 c 2.20 -0.40 3.35 -1.40 3.90 -3.20 0.40 -1.25 0.05 -1.40 -3.35 -1.15 -1.05 0.05 -2.15 -0.15 -2.50 -0.40 -0.35 -0.30 -1.60 -0.60 -2.85 -0.65 l -2.25 -0.20 -0.15 5.90 -0.15 5.85 2.50 0 2.50 0 0.15 -2.85 z  m -77.95 0.90 l 6.85 -0.05 0 -1.50 c 0 -1.35 0.15 -1.50 1.45 -1.50 1.45 0 5.05 -2.75 5.05 -3.85 0 -0.65 -7.20 -1.15 -16 -1.15 l -6.85 0 -0.85 2.25 c -0.70 1.75 -1.30 2.45 -3.10 3.30 -1.20 0.65 -2.20 1.25 -2.20 1.45 0 1 1.45 1.35 4.90 1.25 2.10 -0.10 6.95 -0.15 10.75 -0.20 z  m 137.75 -3.15 c -0.10 -2.05 -0.40 -3.15 -0.85 -3.30 -0.55 -0.20 -0.60 0.35 -0.40 2.70 0.20 1.65 0.30 3.10 0.35 3.35 0 0.20 0.25 0.35 0.50 0.35 0.35 0 0.50 -1.15 0.40 -3.10 z  m -94.45 2.05 c 1.20 -0.40 1.55 -0.85 1.55 -1.80 0 -0.95 -0.20 -1.20 -0.80 -0.95 -0.45 0.15 -1.35 0.30 -2 0.30 -1 0 -1.20 0.25 -1.20 1.50 0 1.65 0.15 1.75 2.45 0.95 z  m 5.20 0 c 1.10 -0.60 1.85 -1.40 1.85 -2.05 0 -0.25 -0.85 -0.40 -1.95 -0.40 -1.55 0 -2 0.20 -2.20 1.10 -0.50 1.90 0.30 2.35 2.30 1.35 z  m 5.55 -0.20 c 1.25 -0.55 1.80 -1.10 1.80 -1.80 0 -0.85 -0.20 -1 -1.10 -0.75 -0.65 0.15 -1.65 0.30 -2.25 0.30 -0.85 0 -1.15 0.30 -1.15 1.15 0 1 0.35 1.85 0.75 1.85 0.10 0 0.95 -0.35 1.95 -0.75 z  m 5.30 0 c 1.85 -0.95 2.15 -3.05 0.40 -2.55 -0.65 0.15 -1.55 0.30 -2 0.30 -0.90 0 -1.65 1.65 -1.15 2.50 0.45 0.70 1.05 0.65 2.75 -0.25 z  m 4.85 0.15 c 1.65 -0.75 2.15 -1.30 2.15 -2.60 0 -0.70 -0.15 -0.80 -0.60 -0.40 -0.35 0.30 -1.30 0.60 -2.15 0.70 -1.20 0.10 -1.55 0.40 -1.65 1.55 -0.20 1.50 0.20 1.65 2.25 0.75 z  m 5.95 -0.45 c 1 -0.60 1.70 -1.45 1.70 -2 0 -1.05 -0.75 -1.30 -1.30 -0.40 -0.15 0.30 -0.95 0.45 -1.75 0.35 -1.60 -0.25 -2 0.35 -1.40 2 0.50 1.35 0.65 1.35 2.75 0.05 z  m -161.95 -7.75 c 0.45 -1.25 -0.65 -2 -1.30 -0.80 -0.50 0.95 -0.30 1.60 0.55 1.60 0.25 0 0.55 -0.35 0.75 -0.80 z  m 45.55 -0.10 c 0.75 -0.50 0.25 -2.10 -0.65 -2.10 -0.75 0 -1.20 0.95 -0.85 1.90 0.25 0.70 0.60 0.75 1.50 0.20 z  m 31.95 -0.60 l 21.10 0 0.15 -1.85 c 0.15 -1.90 0.15 -1.90 2.65 -2.05 3.75 -0.20 3.95 -0.35 2.95 -2.05 -0.65 -1.15 -1.50 -1.65 -3.30 -2.15 l -2.45 -0.60 0.15 -2.30 0.15 -2.25 2.25 0 2.25 0 0.15 -7.70 0.15 -7.70 -17.15 0.30 c -9.45 0.20 -22.70 0.35 -29.50 0.35 l -12.40 0 0 12.25 0 12.25 1.25 0 c 1.10 0 1.25 0.20 1.25 1.70 0 0.95 0.30 1.85 0.65 2 0.30 0.15 2.40 0.15 4.60 0.05 2.20 -0.10 13.50 -0.20 25.10 -0.25 z  m 24.65 -1.70 c -0.65 -0.65 -1.75 0.35 -1.25 1.20 0.25 0.40 0.55 0.40 1.05 -0.05 0.50 -0.40 0.60 -0.75 0.20 -1.15 z  m -59.50 0.50 c 0 -0.55 -3.50 -0.65 -19.85 -0.70 -10.95 -0.05 -20.30 0.05 -20.75 0.20 -3.10 0.95 0.95 1.20 19.85 1.20 17.10 0 20.75 -0.10 20.75 -0.70 z  m 80.50 0.25 c 0 -0.95 -1.10 -1.15 -1.90 -0.35 -0.75 0.75 -0.70 0.80 0.55 0.80 0.75 0 1.35 -0.20 1.35 -0.45 z  m 43.75 -0.35 c 5.50 -0.15 10.15 -0.40 10.35 -0.55 0.25 -0.10 0.40 -0.60 0.40 -1.05 0 -0.50 0.50 -1.10 1.15 -1.35 l 1.10 -0.50 0 -16.35 c 0 -9 -0.15 -16.45 -0.25 -16.55 -0.15 -0.10 -1.30 -0.10 -2.60 0.05 -2.25 0.20 -2.40 0.30 -2.40 1.65 l 0 1.45 -6.60 0.05 c -3.65 0.05 -14.75 0.20 -24.65 0.40 l -18 0.30 -0.15 2.55 c -0.15 2.50 -0.20 2.60 -1.80 2.90 -1.85 0.35 -4.30 2.35 -4.30 3.50 0 0.55 0.70 0.80 2.90 0.90 2.70 0.15 2.85 0.20 3 1.55 0.15 1.30 0.10 1.35 -2.10 1.35 l -2.30 0 0 8.75 0 8.75 2.25 0 c 2 0 2.25 0.10 2.25 1.15 0 0.65 0.15 1.35 0.40 1.60 0.30 0.35 17.05 0.10 41.35 -0.55 z  m 13.75 -1.30 c 0 -0.60 -1.40 -0.50 -1.75 0.10 -0.20 0.30 -0.20 0.95 0 1.40 0.30 0.80 0.40 0.75 1.05 -0.10 0.40 -0.55 0.70 -1.15 0.70 -1.40 z  m 47 0.05 c 0 -0.60 -0.35 -0.95 -0.90 -0.95 -1.40 0 -1.70 0.55 -0.80 1.55 0.95 1.05 1.70 0.80 1.70 -0.60 z  m -151.85 -27.45 c 14.65 -0.05 26.95 -0.25 27.30 -0.45 0.40 -0.25 0.55 -1.35 0.45 -3.10 l -0.15 -2.70 -1.85 -0.15 c -1.80 -0.15 -1.90 -0.25 -1.90 -1.85 0 -1.50 -0.20 -1.80 -1.60 -2.20 -1.60 -0.45 -1.60 -0.45 0.85 -0.60 1.40 -0.05 2.95 -0.10 3.50 -0.15 0.95 -0.05 1 -0.40 1 -11.55 l 0 -11.50 -2.50 -0.25 c -1.80 -0.20 -2.50 -0.45 -2.50 -1 0 -0.60 0.75 -0.80 3.40 -0.90 1.85 -0.10 3.35 -0.25 3.35 -0.40 0 -0.15 -0.35 -0.90 -0.80 -1.70 -1.05 -1.70 -3.45 -3.20 -4.75 -2.85 -0.95 0.25 -1.05 0 -1.15 -3.15 l -0.05 -1.25 -5.25 0.10 c -2.90 0.05 -14.30 0.10 -25.40 0.10 -16.85 0 -20.15 0.15 -20.40 0.75 -0.15 0.35 -0.90 0.80 -1.75 1 l -1.45 0.25 0.05 12.65 c 0 6.95 0.15 14.40 0.30 16.55 0.25 3.65 0.35 3.85 1.45 3.85 1.20 0 1.20 0.05 1.20 5.15 0 5.30 0.20 6.10 1.35 5.65 0.35 -0.15 12.65 -0.30 27.30 -0.30 z  m 81.45 -6 l 15.40 0 0 -1.45 c 0 -1.40 0.15 -1.50 2.15 -1.65 1.95 -0.15 2.10 -0.25 2.25 -1.75 0.15 -1.30 0.40 -1.60 1.50 -1.75 1.25 -0.15 1.35 -0.30 1.30 -2.40 -0.05 -1.25 -0.10 -8.70 -0.15 -16.60 l -0.05 -14.35 -1.10 -0.15 c -0.90 -0.10 -1.20 -0.55 -1.30 -1.75 -0.20 -1.95 1.70 -1.80 -16.70 -1.15 -13 0.45 -31.30 0.95 -34.75 1 -1.50 0 -1.65 0.15 -1.65 1.45 0 1.35 -0.15 1.50 -1.85 1.65 l -1.90 0.15 0 9 0 9 2.35 0.15 2.40 0.15 -0.20 2.10 -0.20 2.10 -2.65 0.25 c -2.25 0.20 -2.70 0.40 -2.70 1.25 0 1.15 2.90 3.25 4.55 3.25 1.20 0 1.20 0.05 1.20 6.10 l 0 6.05 8.35 -0.30 c 4.55 -0.20 15.25 -0.35 23.75 -0.35 z  m -111.60 -0.95 c 0 -0.85 -0.60 -2.05 -1 -2.05 -0.75 0 -1.05 1.65 -0.40 2.10 0.85 0.50 1.40 0.50 1.40 -0.05 z  m 57.50 -2.05 c 0 -0.25 -0.35 -0.50 -0.75 -0.50 -0.40 0 -0.75 0.25 -0.75 0.50 0 0.30 0.35 0.50 0.75 0.50 0.40 0 0.75 -0.20 0.75 -0.50 z  m 78.45 -1 c 0.50 -1.45 0.45 -1.50 -0.90 -1.50 -1.05 0 -1.50 0.30 -1.70 1.10 -0.30 1.10 0.30 1.90 1.50 1.90 0.30 0 0.80 -0.65 1.10 -1.50 z  m 0.55 -5.35 c 0 -1.50 -0.15 -2.20 -0.50 -1.85 -0.40 0.40 -0.15 4.20 0.30 4.20 0.10 0 0.20 -1.05 0.20 -2.35 z  m -0.45 -8.80 c -0.40 -0.40 -0.55 -0.25 -0.55 0.45 0 1.35 0.70 2.05 0.90 0.95 0.10 -0.45 -0.05 -1.10 -0.35 -1.40 z  m 0.45 -11.85 c 0 -1.60 -0.20 -3.10 -0.50 -3.25 -0.30 -0.20 -0.50 1 -0.50 3.25 0 2.25 0.20 3.45 0.50 3.25 0.30 -0.15 0.50 -1.65 0.50 -3.25 z  m 0 -6.25 c 0 -0.40 -0.20 -0.85 -0.50 -1 -0.30 -0.20 -0.50 0.25 -0.50 1 0 0.75 0.20 1.20 0.50 1 0.30 -0.15 0.50 -0.60 0.50 -1 z  m -136.50 -3.75 c 0 -0.55 -0.35 -1 -0.75 -1 -0.40 0 -0.75 0.45 -0.75 1 0 0.55 0.35 1 0.75 1 0.40 0 0.75 -0.45 0.75 -1 z  m 12.50 -8.95 l 0 -7.95 -1.50 -0.35 c -1.55 -0.35 -3.70 -2.50 -4.25 -4.25 -0.45 -1.35 -1.65 -1.25 -1.85 0.15 -0.15 0.95 -0.50 1.15 -3.10 1.35 l -2.95 0.25 -0.15 8.65 -0.15 8.60 1.45 0 c 0.85 0 1.45 0.15 1.45 0.40 -0.05 0.20 -0.05 0.50 0 0.75 0 0.20 2.55 0.35 5.55 0.35 l 5.50 0 0 -7.95 z  m 13.30 7.30 c 0.25 -0.15 0.35 -4.95 0.20 -10.70 l -0.25 -10.40 -2.30 -0.15 c -2.25 -0.15 -2.30 -0.10 -4 2.50 -1.25 1.90 -2.15 2.70 -3.30 3 l -1.65 0.45 0 8 0 8 5.45 -0.20 c 3 -0.10 5.65 -0.35 5.85 -0.50 z  m 109.20 -0.60 c 0 -0.75 -0.30 -1.25 -0.70 -1.25 -1.10 0 -1.50 0.95 -0.80 1.75 0.90 1.10 1.50 0.90 1.50 -0.50 z  m -93.40 -4.05 c 0.10 -2.60 0.05 -6.20 0 -8 -0.15 -2.95 -0.30 -3.20 -1.30 -3.20 -1.45 0 -3.70 -2.05 -4.40 -4 -0.50 -1.55 -0.55 -1.55 -3.85 -1.40 l -3.30 0.15 -0.15 10.65 -0.10 10.60 6.45 0 6.50 0 0.15 -4.80 z  m 11.90 3.80 c 0.15 -0.25 1.15 -0.50 2.25 -0.60 l 2 -0.15 0 -10 0 -10 -4.20 0 c -4.20 0 -4.25 0 -4.60 1.40 -0.50 1.80 -2.35 3.70 -4.10 4.10 l -1.35 0.35 0 7.20 c 0 3.95 0 7.35 -0.05 7.60 0 0.20 0.50 0.45 1.10 0.60 1.55 0.40 8.65 -0.05 8.95 -0.50 z  m 71.95 -2.25 c 4.20 -0.10 7.85 -0.35 8.10 -0.60 0.25 -0.25 0.40 -11.75 0.35 -26.15 -0.15 -25.30 -0.15 -25.75 -1.15 -25.90 -0.55 -0.10 -1.20 -0.45 -1.50 -0.80 -0.40 -0.50 -2.25 -0.55 -7.75 -0.30 -4 0.15 -13.10 0.35 -20.25 0.40 -12.75 0.10 -22.40 0.45 -23.60 0.85 -0.45 0.15 -0.65 1.20 -0.65 3 0 2.65 -0.05 2.75 -1.40 2.75 -1.55 0 -4.80 2.65 -4.45 3.65 0.10 0.35 1.35 0.65 3 0.75 2.45 0.15 2.85 0.30 2.85 1.10 0 0.85 -0.35 1 -2.25 1 l -2.25 0 0 20.15 c 0 11.10 0.15 20.35 0.35 20.55 0.35 0.30 30.35 0.05 50.60 -0.45 z  m 10.95 -7.50 c 0.05 -3.25 -0.15 -5.15 -0.40 -5 -0.30 0.20 -0.50 2.65 -0.50 5.55 0 2.90 0.20 5.15 0.40 5 0.25 -0.15 0.45 -2.65 0.50 -5.55 z  m -124.40 -8.25 l 0 -2 -2.30 0 c -1.65 0 -2.15 0.15 -1.90 0.65 1.30 2.20 2.40 3.35 3.25 3.35 0.80 0 0.95 -0.35 0.95 -2 z  m 5.70 0.90 c 0.40 -0.65 0.85 -1.65 1.05 -2.25 0.25 -1 0.15 -1.15 -0.95 -1.15 -2.25 0 -2.80 0.50 -2.80 2.55 0 1.60 0.15 1.95 1 1.95 0.55 0 1.30 -0.50 1.70 -1.10 z  m 22.80 -1.15 c 0 -2.25 0 -2.25 -1.75 -2.25 -1.30 0 -1.75 0.20 -1.75 0.85 0 0.85 2.35 3.65 3.10 3.65 0.20 0 0.40 -1 0.40 -2.25 z  m 6.25 0.40 c 1.70 -1.90 1.45 -2.90 -0.75 -2.90 -1.70 0 -1.75 0.05 -1.90 2.15 -0.20 2.55 0.70 2.80 2.65 0.75 z  m -43.90 -2.65 c 0.30 -1.10 -1.20 -1.05 30.75 -1.20 11.30 -0.05 15.50 -0.20 15.95 -0.65 0.35 -0.35 0.70 -2.40 0.85 -4.55 l 0.20 -3.95 -2.15 -0.30 c -1.20 -0.20 -5.10 -0.20 -8.70 -0.05 -3.55 0.15 -13.30 0.30 -21.60 0.35 -14.20 0.10 -15.15 0.05 -15.15 -0.75 0 -0.70 -0.40 -0.90 -2 -0.90 -2.25 0 -2.05 -0.75 -2.20 7.65 -0.05 2.70 0.15 4.75 0.45 4.95 0.25 0.20 1.15 0.40 1.90 0.40 1.05 0 1.50 -0.30 1.70 -1 z  m 133.65 -7.10 c 0 -2.60 -0.15 -3.95 -0.50 -3.60 -0.40 0.40 -0.15 7.70 0.30 7.70 0.10 0 0.20 -1.85 0.20 -4.10 z  m -81.10 0.25 c 1.40 -1.55 1.05 -2.15 -1.45 -2.15 l -1.95 0 0 2.05 c 0 1.85 0.10 2 1.15 1.70 0.60 -0.20 1.60 -0.90 2.25 -1.60 z  m -48.20 -6.70 c 0.70 -1.60 1.40 -2.30 3.10 -3.05 l 2.20 -0.95 0 -6.60 c 0 -9.45 0.35 -8.85 -5.55 -8.85 -3.70 0 -5 0.15 -5.30 0.70 -0.20 0.40 -0.95 0.80 -1.65 0.90 l -1.25 0.15 0 8.75 0 8.75 3.15 0.15 c 2.45 0.10 3.15 0.30 2.95 0.85 -0.15 0.35 -0.15 0.80 0 0.95 0.75 0.75 1.50 0.15 2.35 -1.75 z  m 4.80 -0.25 c 0 -1.90 -0.15 -2.25 -0.80 -2 -0.45 0.15 -0.95 0.30 -1.15 0.30 -0.60 0 -2.15 2.95 -1.80 3.50 0.15 0.30 1.10 0.50 2.05 0.50 1.70 0 1.70 0 1.70 -2.30 z  m 7.15 2 c 0.35 -0.35 -1.05 -2.65 -2.15 -3.55 -1.45 -1.20 -2 -0.75 -2 1.60 l 0 2.25 1.90 0 c 1.05 0 2.05 -0.15 2.25 -0.30 z  m 6.85 -10.55 l 0 -10.65 -5.40 0 c -2.95 0 -5.60 0.20 -5.85 0.45 -0.30 0.30 -0.45 3.60 -0.35 7.75 l 0.15 7.25 1.75 0.55 c 1.25 0.45 2.20 1.25 3.20 2.95 1.40 2.25 1.50 2.30 3.95 2.30 l 2.55 0 0 -10.60 z  m 9.50 9.40 c 0 -1.45 1.80 -3.35 4 -4.25 l 2 -0.80 0 -7.80 0 -7.85 -6.75 0.25 c -3.75 0.15 -6.85 0.35 -6.95 0.45 -0.10 0.10 -0.05 4.85 0.10 10.60 l 0.25 10.35 3.65 0 c 3.30 0 3.70 -0.10 3.70 -0.95 z  m 5 -1.30 c 0 -1.25 -0.15 -2.25 -0.35 -2.25 -0.75 0 -3.15 2.75 -3.15 3.60 0 0.70 0.40 0.90 1.75 0.90 1.75 0 1.75 0 1.75 -2.25 z  m 7.35 1.45 c 0.40 -1.05 -2.50 -3.95 -3.50 -3.55 -0.75 0.25 -1.05 3 -0.50 4 0.40 0.70 3.65 0.35 4 -0.45 z  m 9.40 0.25 c 0.30 -0.30 0.45 -8.80 0.30 -16.55 l -0.05 -3.40 -2 0 c -1.50 0 -2 -0.20 -2 -0.80 0 -0.75 -0.50 -0.80 -3.85 -0.50 -2.10 0.15 -4.45 0.30 -5.25 0.30 l -1.45 0 0.15 7.90 0.15 7.85 1.25 0.15 c 1.30 0.20 4.50 2.90 4.50 3.85 0 1.20 1.20 1.60 4.50 1.55 1.90 -0.05 3.55 -0.20 3.75 -0.35 z  m 79.25 -10.50 c 0 -1.10 -0.20 -1.90 -0.40 -1.75 -0.40 0.25 -0.20 3.80 0.20 3.80 0.10 0 0.20 -0.90 0.20 -2.05 z  m -0.45 -9.10 c -0.40 -0.40 -0.55 0.20 -0.55 1.95 0 3.30 0.70 4 0.90 0.95 0.10 -1.30 -0.10 -2.65 -0.35 -2.90 z  m -102.65 -3.15 c 3.35 -0.25 4.60 -0.55 4.60 -1 0 -0.40 0.25 -0.70 0.50 -0.70 0.30 0 0.50 0.35 0.50 0.75 0 0.65 1.10 0.75 7 0.75 5.80 0 7.10 -0.15 7.30 -0.75 0.20 -0.45 0.95 -0.75 1.95 -0.75 0.95 0 1.80 -0.20 2 -0.45 0.40 -0.65 0.40 -23.90 0 -24.55 -0.15 -0.25 -1.30 -0.50 -2.55 -0.50 -2.20 0 -2.45 -0.25 -1.90 -1.70 0.25 -0.60 1 -0.80 2.95 -0.80 1.50 0 2.85 -0.20 3 -0.50 0.80 -1.25 -2.40 -4 -4.65 -4 -0.55 0 -1.20 -0.55 -1.55 -1.30 -0.60 -1.30 -0.65 -1.35 -4.20 -1 -2 0.15 -13.50 0.45 -25.60 0.60 -12.10 0.15 -22.50 0.35 -23.10 0.50 l -1.15 0.20 0 17 0 17 1.20 0 c 0.65 0 1.30 0.35 1.50 0.75 0.25 0.65 2.25 0.75 13.95 0.75 7.55 0 15.75 -0.15 18.25 -0.30 z  m 75.75 -1.50 c 19.75 -0.35 21.45 -0.45 21.85 -1.25 0.30 -0.50 1 -0.95 1.60 -1.05 l 1.15 -0.15 0 -17.15 0 -17.20 -16.25 0.35 c -8.95 0.20 -17.35 0.45 -18.75 0.50 -1.35 0.10 -7.40 0.20 -13.35 0.20 l -10.90 0.05 0 12.50 0 12.50 2.25 0 c 1.90 0 2.25 0.15 2.25 1 0 0.80 -0.45 1 -3 1.30 -1.65 0.20 -3 0.50 -3 0.75 0 0.20 0.60 1.05 1.30 1.90 0.95 1.20 1.70 1.55 3 1.55 1.65 0 1.70 0.05 1.70 2.15 0 1.20 0.15 2.35 0.40 2.55 0.20 0.25 2.15 0.30 4.35 0.10 2.20 -0.15 13.65 -0.45 25.40 -0.60 z  m 27.35 -4.45 c 0 -0.70 -0.20 -1.25 -0.50 -1.25 -0.55 0 -0.70 1.65 -0.15 2.15 0.55 0.55 0.65 0.40 0.65 -0.90 z  m -0.05 -5.35 c -0.05 -1.75 -0.20 -3.70 -0.40 -4.40 -0.35 -1.15 -0.40 -1.15 -0.65 -0.25 -0.15 0.55 -0.20 2 -0.15 3.25 0.10 1.25 0.20 2.75 0.20 3.40 0.05 0.60 0.30 1.10 0.55 1.10 0.30 0 0.50 -1.35 0.45 -3.10 z  m -94.05 -26.70 c 9.45 -0.30 10.10 -0.35 10.10 -1.25 0 -0.65 0.35 -0.95 1.25 -0.95 1.95 0 3.65 -1 4.45 -2.65 0.40 -0.85 0.60 -1.75 0.50 -1.95 -0.15 -0.20 -1.60 -0.40 -3.25 -0.40 -2.85 0 -3 -0.05 -2.85 -1.10 0.15 -1 0.55 -1.20 2.65 -1.40 l 2.50 -0.25 0 -2.75 0 -2.75 -1.95 -0.25 c -1.80 -0.25 -2 -0.40 -2 -1.75 -0.05 -0.80 -0.25 -1.80 -0.45 -2.10 -0.30 -0.50 0.10 -0.65 1.60 -0.65 l 2.05 0 0 -7.80 0 -7.75 -28.85 0.30 c -15.90 0.20 -29.05 0.45 -29.25 0.60 -0.25 0.10 -0.40 3.55 -0.40 7.70 l 0 7.45 1.25 0 c 1.15 0 1.25 0.15 1.25 2.45 0 2.20 -0.15 2.50 -1.10 2.65 -1.10 0.15 -1.15 0.30 -1.30 7.15 -0.05 3.80 0 7.25 0.10 7.60 0.25 0.65 17.70 0.60 43.70 -0.15 z  m 56.10 -1.45 c 4.25 -0.15 13.60 -0.30 20.75 -0.30 7.15 -0.05 13.35 -0.15 13.75 -0.25 0.70 -0.15 0.75 -1.30 0.65 -7.85 l -0.15 -7.60 -1.30 -0.15 c -1.05 -0.15 -1.25 -0.35 -1 -1.25 0.15 -0.60 0.30 -1.60 0.30 -2.20 0 -0.70 0.35 -1.15 1 -1.25 1 -0.15 1.05 -0.55 1.25 -7.50 0.15 -6.45 0.05 -7.45 -0.65 -7.85 -0.45 -0.25 -4.45 -0.35 -9.25 -0.20 -7.05 0.25 -8.40 0.20 -8.25 -0.40 0.10 -0.40 0.30 -0.80 0.50 -0.95 0.20 -0.15 4.15 -0.35 8.75 -0.45 4.60 -0.05 8.45 -0.20 8.55 -0.30 0.30 -0.25 0.10 -30.75 -0.25 -32.25 -0.20 -1.15 -0.55 -1.50 -1.45 -1.50 -0.95 0 -1.20 -0.25 -1.20 -1.25 0 -1.25 -0.05 -1.25 -3.85 -1.25 -4.55 0 -6.15 0.35 -6.15 1.30 0 0.55 -1.05 0.70 -4.60 0.80 -4.25 0.05 -5.40 0.10 -7.25 0.35 -0.50 0.05 -0.65 2.15 -0.65 8.80 0 7.45 -0.10 8.75 -0.75 8.75 -1.15 0 -0.90 0.85 0.40 1.20 1 0.25 3.70 0.20 15.75 -0.45 3.85 -0.25 4.60 -0.15 4.60 0.45 0 1.20 1.10 3.30 1.75 3.30 0.30 0 1 0.35 1.55 0.75 0.90 0.75 0.85 0.80 -0.80 0.45 -1.05 -0.20 -2.25 -0.90 -3.05 -1.85 l -1.25 -1.50 -5.40 0.30 c -3 0.15 -5.50 0.40 -5.60 0.45 -0.10 0.10 -0.20 1.75 -0.25 3.65 -0.10 5.35 -0.35 6.35 -1.60 6.15 -1 -0.15 -1.10 -0.50 -1.20 -3.60 -0.05 -1.90 0.10 -3.20 0.30 -2.90 0.20 0.35 0.60 0.40 1.05 0.10 0.55 -0.35 0.55 -0.50 0.10 -0.50 -0.35 0 -0.90 -0.70 -1.20 -1.55 l -0.55 -1.60 -9.65 0.30 c -5.35 0.15 -9.70 0.20 -9.70 0.10 0 -0.10 -0.15 -0.50 -0.30 -0.95 -0.20 -0.55 -0.05 -0.80 0.50 -0.80 0.45 0 0.85 0.40 0.85 0.90 0.05 0.80 0.10 0.80 0.30 0 0.10 -0.50 0.50 -0.90 0.80 -0.90 3.05 -0.10 9.80 -0.60 10.50 -0.80 0.75 -0.25 0.85 -1.10 0.85 -9 l 0 -8.70 -10.70 0 c -12.10 0 -11.60 -0.20 -10.80 3.95 0.55 3.05 0.30 11.65 -0.45 12.90 -0.50 0.85 -0.50 0.85 -0.55 -0.10 0 -0.60 0.25 -1.30 0.60 -1.65 0.45 -0.45 0.45 -0.75 -0.05 -1.20 -0.50 -0.55 -0.75 -0.45 -1.35 0.30 -0.60 0.90 -0.70 0.10 -0.70 -6.60 0 -7.35 -0.05 -7.60 -1 -7.60 -0.60 0 -1.70 0.35 -2.55 0.80 -0.80 0.40 -1.90 0.60 -2.45 0.45 -0.60 -0.20 -1 0 -1.15 0.60 -0.40 1.65 -0.40 22.40 0.05 23.05 0.25 0.40 0.95 0.50 1.95 0.30 1.20 -0.25 1.60 -0.65 1.80 -1.70 0.20 -0.80 1.15 -2.05 2.35 -3 1.60 -1.30 2.35 -1.55 3.50 -1.30 0.85 0.15 1.50 0.05 1.50 -0.20 0 -0.30 0.25 -0.50 0.50 -0.50 0.30 0 0.50 0.65 0.50 1.40 0 1.60 0.80 2.60 2.05 2.60 0.60 0 0.75 -0.30 0.60 -1.20 -0.15 -0.65 0 -1.35 0.30 -1.50 0.30 -0.20 0.55 0 0.55 0.40 0 0.45 0.20 0.80 0.45 0.80 0.35 0 0.40 0.95 0.10 2.65 0 0.20 -0.65 0.35 -1.35 0.35 -0.85 0 -1.90 -0.60 -3 -1.75 -1.90 -2.05 -3.45 -2.25 -5.40 -0.70 -1.75 1.40 -1.45 2.15 1 2.45 1.30 0.15 1.95 0.50 1.95 1 0 0.55 -0.70 0.80 -2.70 0.90 -2.15 0.15 -2.70 0.35 -2.90 1.15 -0.20 0.75 -0.70 0.95 -2.20 0.95 l -1.95 0 0 2.50 0 2.50 17 0 c 16.45 0 17 -0.05 17.60 -1 0.75 -1.20 2 -1.35 1.55 -0.20 -0.20 0.50 0.05 0.85 0.75 1.05 0.75 0.20 1 0.60 0.95 1.60 l -0.10 1.30 -18.60 -0.15 -18.65 -0.15 0 7 c 0 6.95 0 7.05 1.25 7.85 0.70 0.45 1.25 1.10 1.25 1.45 0 0.35 0.30 0.90 0.70 1.20 0.40 0.35 0.90 1.30 1.05 2.15 0.45 1.90 -0.20 2.40 -3.20 2.40 l -2.20 0 0.35 1.90 c 0.15 1 0.30 4.05 0.30 6.75 l 0 4.85 1.95 0 c 1.30 0 2.05 0.25 2.25 0.80 0.25 0.70 1.10 0.75 6.20 0.50 3.20 -0.15 9.35 -0.40 13.60 -0.55 z  m -98.50 -15.50 c 0 -0.40 -0.35 -0.75 -0.75 -0.75 -0.40 0 -0.75 0.35 -0.75 0.75 0 0.40 0.35 0.75 0.75 0.75 0.40 0 0.75 -0.35 0.75 -0.75 z  m 57 -0.95 c 0 -0.75 -0.35 -1.30 -1 -1.45 -1.50 -0.40 -1.80 0.70 -0.50 1.75 1.40 1.15 1.50 1.15 1.50 -0.30 z  m 77 -2.55 c 0 -0.40 -0.35 -0.75 -0.75 -0.75 -0.40 0 -0.75 0.35 -0.75 0.75 0 0.40 0.35 0.75 0.75 0.75 0.40 0 0.75 -0.35 0.75 -0.75 z  m 2.40 -8.95 c 0.10 -4 -0.05 -5.55 -0.50 -5.85 -1.10 -0.70 -1.40 0.65 -1.40 6.20 0 4.90 0.10 5.40 0.90 5.25 0.75 -0.15 0.85 -0.90 1 -5.60 z  m -79 -9.15 c 0.10 -0.40 -0.30 -0.65 -1.10 -0.65 -1.25 0 -1.65 0.50 -0.95 1.20 0.50 0.50 1.80 0.15 2.05 -0.55 z  m -57.40 -34.15 c 0 -0.25 -0.45 -0.50 -1 -0.50 -0.55 0 -1 0.25 -1 0.50 0 0.30 0.45 0.50 1 0.50 0.55 0 1 -0.20 1 -0.50 z  m 56.50 -0.70 c 0 -0.10 0.15 -0.55 0.30 -1 0.20 -0.55 0 -0.80 -0.70 -0.80 -1.15 0 -1.80 0.75 -1.35 1.50 0.30 0.50 1.75 0.70 1.75 0.30 z  m 19.90 -1.20 c 0.10 -0.35 -0.15 -0.60 -0.60 -0.60 -0.45 0 -0.80 0.35 -0.80 0.80 0 0.85 1.10 0.70 1.40 -0.20 z  m -60.45 -0.40 c 0.65 -0.60 -1 -0.80 -6.35 -0.85 -5.90 -0.10 -7 0.10 -6.40 1.05 0.30 0.45 12.25 0.25 12.75 -0.20 z  m 85.05 -0.50 c 6.45 -0.20 12.10 -0.55 12.50 -0.80 0.45 -0.30 -5.95 -0.35 -16.70 -0.15 -9.60 0.15 -17.65 0.40 -17.90 0.55 -0.25 0.15 -0.30 0.50 -0.10 0.75 0.15 0.30 2.35 0.40 5.35 0.25 2.80 -0.15 10.40 -0.40 16.85 -0.60 z  m -36.10 -1.35 c 0.25 -1.15 -3 -4.35 -4.40 -4.35 -1.05 0 -1.10 0.20 -0.80 1.90 0.15 1 0.30 2.25 0.30 2.75 0 0.75 0.35 0.90 2.35 0.75 1.80 -0.10 2.45 -0.35 2.55 -1.05 z  m -8.90 -3.85 c 0 -4.45 0 -4.50 -1.25 -4.50 -1.25 0 -1.25 0.05 -1.25 4.15 0 4.45 0.15 4.85 1.60 4.85 0.80 0 0.90 -0.45 0.90 -4.50 z  m 15.50 2 c 0 -2.05 -0.15 -2.50 -0.85 -2.50 -1.10 0.05 -2.15 0.85 -3.30 2.50 -1.40 2.05 -1.10 2.50 1.65 2.50 l 2.50 0 0 -2.50 z  m 5.70 0.95 c -0.15 -0.25 0.20 -0.45 0.75 -0.45 0.65 0 1.05 0.35 1.05 0.80 0 0.60 0.30 0.75 1.15 0.50 0.60 -0.20 1.85 -0.45 2.75 -0.65 1.50 -0.25 1.60 -0.40 1.60 -2.45 0 -1.65 -0.25 -2.30 -0.95 -2.70 -0.85 -0.40 -0.95 -0.85 -0.70 -3.20 0.15 -1.50 0.15 -3.30 -0.05 -4.05 -0.35 -1.30 -0.45 -1.35 -2.70 -1.05 -1.30 0.15 -4 0.45 -5.95 0.60 -4.05 0.35 -4.40 0.75 -2.50 3 0.90 1.05 1.75 1.40 3.80 1.60 l 2.60 0.25 -0.15 2.50 c -0.15 2.25 -0.30 2.60 -1.40 2.85 -0.90 0.20 -1.30 0.65 -1.40 1.70 -0.10 0.80 0.10 1.60 0.45 1.85 0.75 0.45 2.10 -0.45 1.65 -1.10 z  m 36.20 -5.50 c 0.05 -3.20 -0.10 -6.40 -0.40 -7.15 -0.45 -1.30 -0.60 -1.30 -3.10 -1 -3.05 0.40 -3.40 0.75 -3.40 3.35 0 1.55 0.20 2 1 2.20 0.55 0.15 1 0.70 1 1.25 0 0.55 -0.45 1.10 -1 1.25 -0.80 0.20 -1 0.70 -1 2.60 0 2.30 0.05 2.40 1.90 2.90 1 0.30 2.55 0.50 3.35 0.45 l 1.50 -0.05 0.15 -5.80 z  m 16.10 5.05 c -0.40 -0.25 -2.20 -0.50 -4 -0.50 -1.80 0 -3.60 0.25 -4 0.50 -0.50 0.35 0.75 0.50 4 0.50 3.25 0 4.50 -0.15 4 -0.50 z  m -39.90 -1.60 c -0.45 -0.45 -0.60 -0.35 -0.60 0.60 0 0.95 0.15 1.05 0.60 0.60 0.45 -0.45 0.45 -0.75 0 -1.20 z  M199.55 20.35 C 199.55 16.55 196.45 13.50 192.65 13.50 188.85 13.50 185.75 16.55 185.75 20.35 185.75 24.15 188.85 27.25 192.65 27.25 196.45 27.25 199.55 24.15 199.55 20.35 Z M194.05 26.20 "
       id="path1" />
    <path
       d="M 100.50 509.50 c 0 -0.25 0.45 -0.50 1.05 -0.50 0.55 0 0.85 0.25 0.70 0.50 -0.15 0.30 -0.65 0.50 -1.05 0.50 -0.40 0 -0.70 -0.20 -0.70 -0.50 z "
       id="path2" />
    <path
       d="M 103.10 509.75 c 0.45 -0.50 7.95 -0.60 8.20 -0.15 0.15 0.20 -1.70 0.40 -4.10 0.40 -2.40 0 -4.25 -0.10 -4.10 -0.25 z "
       id="path3" />
    <path
       d="M 112.80 509.55 c 0.25 -0.25 1.35 -0.30 2.45 -0.05 l 2 0.40 -2.45 0.05 c -1.50 0.05 -2.30 -0.15 -2 -0.40 z "
       id="path4" />
    <path
       d="M 161.50 421.50 l 0 -2.50 2.50 0 2.50 0 0 2.50 0 2.50 -2.50 0 -2.50 0 0 -2.50 z  m 3 0.05 c 0 -1.15 -0.80 -1.80 -1.25 -1.05 -0.45 0.70 0.05 2 0.75 2 0.25 0 0.50 -0.45 0.50 -0.95 z "
       id="path5" />
    <path
       d="M 220.50 421.55 l 0 -2.55 2.55 0 2.50 0 -0.15 2.40 -0.15 2.35 -2.35 0.15 -2.40 0.15 0 -2.50 z  m 3.85 0.20 c 0.05 -0.25 -0.10 -0.85 -0.35 -1.25 -0.40 -0.65 -0.55 -0.60 -1.20 0.25 -0.45 0.55 -0.80 1.20 -0.80 1.40 0 0.60 2.15 0.20 2.35 -0.40 z "
       id="path6" />
    <path
       d="M 192.25 418.50 c -0.20 -0.30 0.60 -0.50 2 -0.50 1.30 0 2.70 -0.20 3.15 -0.45 1.15 -0.60 5.45 -1.25 4.95 -0.75 -0.50 0.55 -6.80 2.15 -8.45 2.20 -0.75 0 -1.50 -0.20 -1.65 -0.50 z "
       id="path7" />
    <path
       d="M 186.40 417.80 c -2.85 -0.85 -2.95 -1.45 -0.15 -1.10 2.50 0.40 5.10 1.85 3 1.75 -0.55 -0.05 -1.85 -0.30 -2.85 -0.65 z "
       id="path8" />
    <path
       d="M 180.70 415.55 c -2.40 -1.45 -2.60 -2.25 -0.25 -1.10 1.15 0.60 2.05 1.30 2.05 1.55 0 0.65 0 0.65 -1.80 -0.45 z "
       id="path9" />
    <path
       d="M 205.65 414.80 c 0.75 -0.75 1.80 -1.30 2.25 -1.30 0.75 0 0.75 0.10 0.10 0.55 -0.40 0.25 -1.40 0.85 -2.25 1.25 l -1.50 0.75 1.40 -1.25 z "
       id="path10" />
    <path
       d="M 173.80 410.35 c -0.75 -0.95 -1.30 -1.85 -1.30 -2 0 -0.90 1.05 -0.15 2.50 1.65 1.15 1.45 1.35 2 0.80 2 -0.40 0 -1.30 -0.75 -2 -1.65 z "
       id="path11" />
    <path
       d="M 210.50 411.15 c 0.05 -0.65 3.55 -4.25 3.90 -3.95 0.15 0.15 -0.40 1.15 -1.20 2.15 -1.50 1.80 -2.70 2.65 -2.70 1.80 z "
       id="path12" />
    <path
       d="M 189.75 407.55 c -1.45 -0.30 -1.95 -1.35 -0.60 -1.25 1.70 0.05 4.85 0.90 4.85 1.25 0 0.50 -1.95 0.50 -4.25 0 z "
       id="path13" />
    <path
       d="M 196 407.25 c 0 -0.20 4.40 -2.25 4.80 -2.25 0.10 0 0.20 0.20 0.20 0.45 0 0.55 -3.10 2.05 -4.20 2.05 -0.45 0 -0.80 -0.10 -0.80 -0.25 z "
       id="path14" />
    <path
       d="M 169.50 403.50 c -0.75 -1.60 -1.50 -2.50 -2.05 -2.50 -0.95 0 -1.60 -0.65 -1.15 -1.15 0.15 -0.15 0.90 -0.05 1.60 0.20 1.60 0.60 4.50 5.95 3.20 5.95 -0.25 0 -0.95 -1.10 -1.60 -2.50 z "
       id="path15" />
    <path
       d="M 183.50 404.25 c -0.95 -0.95 -1.55 -1.75 -1.35 -1.75 0.65 0 4.35 2.60 4.35 3.05 0 0.95 -1.40 0.35 -3 -1.30 z "
       id="path16" />
    <path
       d="M 215.40 405.25 c -0.15 -0.15 0.15 -1.20 0.65 -2.25 0.55 -1.05 0.95 -2.15 0.95 -2.40 0 -0.60 2.90 -1.85 3.30 -1.45 0.50 0.50 -0.30 1.35 -1.25 1.35 -0.50 0 -1.10 0.65 -1.45 1.65 -0.75 2 -1.75 3.50 -2.20 3.10 z "
       id="path17" />
    <path
       d="M 202.50 404.20 c 0 -0.55 3.15 -4.70 3.60 -4.70 0.80 0 0.40 1.15 -1.15 3.05 -1.35 1.75 -2.45 2.45 -2.45 1.65 z "
       id="path18" />
    <path
       d="M 179.35 399.05 c -0.45 -0.80 -0.85 -2 -0.85 -2.65 0 -0.60 -0.35 -1.80 -0.75 -2.55 -0.65 -1.30 -0.65 -1.55 0 -2.50 0.40 -0.60 0.75 -1.60 0.75 -2.20 0 -0.65 0.20 -1.15 0.45 -1.15 0.20 0 0.30 1.50 0.20 3.40 -0.25 3.10 0.05 4.60 1.60 8.25 0.60 1.40 -0.45 0.95 -1.40 -0.60 z "
       id="path19" />
    <path
       d="M 207 396.55 c 0 -0.50 0.35 -1.70 0.75 -2.65 0.35 -0.95 0.50 -1.95 0.30 -2.20 -0.20 -0.25 -0.70 -1.55 -1.05 -2.95 -0.90 -3.20 -2.25 -5.20 -4.95 -7.30 -3.95 -3.05 -9.05 -3.75 -14.05 -1.95 -3.20 1.15 -6.70 4.45 -6.15 5.80 0.20 0.60 0.05 0.75 -0.65 0.60 -0.75 -0.10 -0.90 -0.50 -0.80 -1.70 0.10 -0.95 -0.35 -2.65 -1.10 -4.15 -0.70 -1.45 -1.15 -2.90 -1 -3.25 0.15 -0.35 -0.20 -1.20 -0.75 -1.85 l -1 -1.20 -1.75 1.70 c -2.40 2.35 -2.75 1.75 -0.40 -0.70 1 -1.05 1.85 -2.25 1.85 -2.70 0 -0.50 0.70 -0.90 1.95 -1.15 1.05 -0.25 2.20 -0.70 2.50 -1.10 0.90 -1.05 7.25 -2.95 11 -3.20 3.60 -0.25 10.30 0.70 10.30 1.45 0 0.25 0.30 0.45 0.70 0.45 2.55 0 8.70 4.60 11.80 8.75 1.45 2 3 5.15 3 6.20 0 0.85 0.30 1.05 1.50 1.05 0.85 0 1.50 0.25 1.50 0.50 0 0.30 -0.35 0.50 -0.75 0.50 -0.50 0 -0.75 0.50 -0.75 1.70 0 0.95 -0.25 1.90 -0.50 2.05 -0.95 0.60 -2 -0.80 -2 -2.55 0 -1.35 -0.20 -1.70 -0.95 -1.70 -1.10 0 -1.85 0.80 -1 1.10 0.30 0.10 -0.80 1.20 -2.40 2.50 -2.85 2.20 -3 2.45 -3.60 5.60 -0.60 3.05 -1.55 4.50 -1.55 2.35 z  m 4.50 -8.65 c 1.10 -1.20 1.35 -2.15 0.40 -1.70 -0.35 0.15 -1.05 0.45 -1.50 0.60 -0.95 0.35 -1.25 2.20 -0.40 2.20 0.25 0 0.90 -0.50 1.50 -1.10 z  m 1.70 -2.90 c 2.05 -0.85 3.10 -2 1.80 -2 -0.80 0 -5 2.15 -5 2.60 0 0.60 0.70 0.50 3.20 -0.60 z  m 0.20 -2.05 c 1.10 -0.45 1.55 -1.45 0.60 -1.45 -0.95 0 -5.50 2.50 -5.50 3 0 0.30 0.85 0.15 1.90 -0.30 1 -0.45 2.35 -1 3 -1.25 z  m -1.70 -1.40 c 1.50 -0.80 2.30 -2.05 1.35 -2.05 -0.55 0 -5.05 2.95 -5.05 3.30 0 0.40 2.05 -0.30 3.70 -1.25 z  m -1.30 -1.60 c 2.10 -1.55 2.65 -2.45 1.50 -2.45 -0.65 0.05 -4.40 3.25 -4.40 3.75 0 0.55 0.95 0.15 2.90 -1.30 z  m -1.40 -1.25 c 1.10 -1 1.85 -2.05 1.70 -2.30 -0.30 -0.50 -4.20 2.95 -4.20 3.70 0 0.70 0.45 0.45 2.50 -1.40 z  m -1.65 -0.90 c 1.65 -1.75 1.95 -2.30 1.45 -2.75 -0.70 -0.60 -0.95 -0.40 -3.50 3.10 -1.90 2.60 -0.55 2.40 2.05 -0.35 z  m -26.15 -2.30 c -0.85 -1.30 -1.55 -1.85 -1.85 -1.55 -0.30 0.30 0.15 1.20 1.20 2.55 2.05 2.55 2.50 1.85 0.65 -1 z  m 26.30 -1.60 c 0 -0.20 -0.25 -0.40 -0.50 -0.40 -0.55 0 -2.50 2.95 -2.50 3.75 0.05 0.55 3 -2.75 3 -3.35 z  m -10.50 -0.30 c 0.30 -1.55 0.65 -3.15 0.75 -3.45 0.40 -1.15 -1.70 -1.75 -4.90 -1.40 -4.50 0.45 -4.95 0.65 -4.40 1.70 0.30 0.50 0.65 2 0.85 3.40 l 0.30 2.55 3.45 0 3.40 0.05 0.55 -2.85 z  m 4.20 -0.25 c 0.65 -1.45 1 -2.80 0.80 -3.05 -0.70 -0.70 -1.35 0.10 -1.95 2.40 -0.30 1.20 -0.70 2.55 -0.90 3.05 -0.75 2.05 0.90 0.05 2.05 -2.40 z  m 3.70 1.40 c 1.10 -1.55 1.15 -2.75 0.15 -2.75 -0.40 0 -2.05 3.20 -2.05 4 0 0.95 0.75 0.45 1.90 -1.25 z  m -21.90 0.75 c 0 -0.90 -1.50 -3.50 -2 -3.50 -0.75 0 -0.60 0.70 0.40 2.45 0.85 1.55 1.60 2 1.60 1.05 z  m 16.35 -2.75 c 0.70 -2 0.50 -3.80 -0.30 -2.95 -0.25 0.25 -0.65 1.55 -0.95 2.85 -0.60 2.95 0.25 3 1.25 0.10 z  m -15.30 -0.20 c -0.35 -0.60 -0.90 -1.05 -1.35 -1.05 -0.65 0 -0.60 0.20 0.10 1.55 0.50 1.05 0.95 1.40 1.30 1.05 0.35 -0.35 0.30 -0.85 -0.05 -1.55 z  m 19.15 0.70 c 0.95 -1.45 0.60 -2.65 -0.50 -1.70 -0.60 0.50 -1.05 2.95 -0.50 2.95 0.10 0 0.55 -0.55 1 -1.25 z  m -17.25 -1.35 c -0.35 -0.65 -0.70 -0.90 -0.80 -0.55 -0.15 0.35 0.05 1.10 0.40 1.75 0.35 0.65 0.70 0.90 0.80 0.55 0.15 -0.35 -0.05 -1.10 -0.40 -1.75 z  m 2.05 0 c 0 -1.35 -0.80 -2.75 -1.30 -2.30 -0.30 0.35 0.70 3.40 1.10 3.40 0.10 0 0.20 -0.50 0.20 -1.10 z "
       id="path27" />
    <path
       d="M 173.60 388.25 c -1.10 -1.05 -1.55 -1.75 -1.10 -1.75 0.75 0 4 2.60 4 3.20 0 0.75 -1.15 0.15 -2.90 -1.45 z "
       id="path39" />
    <path
       d="M 167.65 385.10 c 0.40 -0.45 1 -1.45 1.30 -2.25 0.30 -0.75 0.75 -1.35 1.05 -1.35 0.30 0 0.25 0.55 -0.20 1.40 -0.50 0.95 -0.55 1.65 -0.25 2.25 0.45 0.70 0.25 0.85 -1.10 0.85 -1.50 0 -1.55 -0.05 -0.80 -0.90 z "
       id="path40" />
    <path
       d="M 161.50 364.85 l 0 -2.85 2.25 0 2.25 0 0 2.25 c 0 2.20 -0.05 2.25 -1.65 2.25 -0.90 0 -1.90 0.25 -2.25 0.60 -0.45 0.45 -0.60 -0.05 -0.60 -2.25 z "
       id="path41" />
    <path
       d="M 220.40 363.65 c -0.15 -2 -0.05 -2.15 1.10 -2.15 0.70 0 1.75 -0.15 2.40 -0.30 1.10 -0.30 1.15 -0.25 1 2.10 l -0.15 2.45 -2.10 0 -2.05 0 -0.20 -2.10 z "
       id="path42" />
  </g>
</svg>
